%TF.GenerationSoftware,KiCad,Pcbnew,8.0.1*%
%TF.CreationDate,2024-05-07T16:59:08+08:00*%
%TF.ProjectId,ESP32wroom,45535033-3277-4726-9f6f-6d2e6b696361,rev?*%
%TF.SameCoordinates,Original*%
%TF.FileFunction,Paste,Top*%
%TF.FilePolarity,Positive*%
%FSLAX46Y46*%
G04 Gerber Fmt 4.6, Leading zero omitted, Abs format (unit mm)*
G04 Created by KiCad (PCBNEW 8.0.1) date 2024-05-07 16:59:08*
%MOMM*%
%LPD*%
G01*
G04 APERTURE LIST*
G04 Aperture macros list*
%AMRoundRect*
0 Rectangle with rounded corners*
0 $1 Rounding radius*
0 $2 $3 $4 $5 $6 $7 $8 $9 X,Y pos of 4 corners*
0 Add a 4 corners polygon primitive as box body*
4,1,4,$2,$3,$4,$5,$6,$7,$8,$9,$2,$3,0*
0 Add four circle primitives for the rounded corners*
1,1,$1+$1,$2,$3*
1,1,$1+$1,$4,$5*
1,1,$1+$1,$6,$7*
1,1,$1+$1,$8,$9*
0 Add four rect primitives between the rounded corners*
20,1,$1+$1,$2,$3,$4,$5,0*
20,1,$1+$1,$4,$5,$6,$7,0*
20,1,$1+$1,$6,$7,$8,$9,0*
20,1,$1+$1,$8,$9,$2,$3,0*%
G04 Aperture macros list end*
%ADD10RoundRect,0.225000X-0.250000X0.225000X-0.250000X-0.225000X0.250000X-0.225000X0.250000X0.225000X0*%
%ADD11R,1.200000X1.200000*%
%ADD12RoundRect,0.200000X-0.200000X-0.275000X0.200000X-0.275000X0.200000X0.275000X-0.200000X0.275000X0*%
%ADD13RoundRect,0.218750X0.256250X-0.218750X0.256250X0.218750X-0.256250X0.218750X-0.256250X-0.218750X0*%
%ADD14RoundRect,0.200000X-0.275000X0.200000X-0.275000X-0.200000X0.275000X-0.200000X0.275000X0.200000X0*%
%ADD15R,0.600000X1.450000*%
%ADD16R,0.300000X1.450000*%
%ADD17RoundRect,0.225000X-0.225000X-0.250000X0.225000X-0.250000X0.225000X0.250000X-0.225000X0.250000X0*%
%ADD18R,1.700000X0.900000*%
%ADD19RoundRect,0.200000X0.275000X-0.200000X0.275000X0.200000X-0.275000X0.200000X-0.275000X-0.200000X0*%
%ADD20RoundRect,0.200000X0.200000X0.275000X-0.200000X0.275000X-0.200000X-0.275000X0.200000X-0.275000X0*%
%ADD21RoundRect,0.250000X-0.275000X0.275000X-0.275000X-0.275000X0.275000X-0.275000X0.275000X0.275000X0*%
%ADD22RoundRect,0.062500X-0.062500X0.350000X-0.062500X-0.350000X0.062500X-0.350000X0.062500X0.350000X0*%
%ADD23RoundRect,0.062500X-0.350000X0.062500X-0.350000X-0.062500X0.350000X-0.062500X0.350000X0.062500X0*%
%ADD24RoundRect,0.375000X0.375000X-0.625000X0.375000X0.625000X-0.375000X0.625000X-0.375000X-0.625000X0*%
%ADD25RoundRect,0.500000X1.400000X-0.500000X1.400000X0.500000X-1.400000X0.500000X-1.400000X-0.500000X0*%
%ADD26RoundRect,0.225000X0.250000X-0.225000X0.250000X0.225000X-0.250000X0.225000X-0.250000X-0.225000X0*%
%ADD27RoundRect,0.218750X-0.218750X-0.256250X0.218750X-0.256250X0.218750X0.256250X-0.218750X0.256250X0*%
%ADD28RoundRect,0.225000X0.225000X0.250000X-0.225000X0.250000X-0.225000X-0.250000X0.225000X-0.250000X0*%
%ADD29RoundRect,0.200000X0.250000X0.200000X-0.250000X0.200000X-0.250000X-0.200000X0.250000X-0.200000X0*%
%ADD30R,1.500000X0.900000*%
%ADD31R,0.900000X1.500000*%
%ADD32R,1.050000X1.050000*%
G04 APERTURE END LIST*
D10*
%TO.C,C5*%
X184200000Y-106525000D03*
X184200000Y-108075000D03*
%TD*%
D11*
%TO.C,D6*%
X180300000Y-119400000D03*
X183100000Y-119400000D03*
%TD*%
D12*
%TO.C,R9*%
X178375000Y-103900000D03*
X180025000Y-103900000D03*
%TD*%
D13*
%TO.C,D2*%
X184600000Y-115387500D03*
X184600000Y-113812500D03*
%TD*%
D14*
%TO.C,R5*%
X199100000Y-111075000D03*
X199100000Y-112725000D03*
%TD*%
D15*
%TO.C,J2*%
X183450000Y-122455000D03*
X184250000Y-122455000D03*
D16*
X185450000Y-122455000D03*
X186450000Y-122455000D03*
X186950000Y-122455000D03*
X187950000Y-122455000D03*
D15*
X189150000Y-122455000D03*
X189950000Y-122455000D03*
X189950000Y-122455000D03*
X189150000Y-122455000D03*
D16*
X188450000Y-122455000D03*
X187450000Y-122455000D03*
X185950000Y-122455000D03*
X184950000Y-122455000D03*
D15*
X184250000Y-122455000D03*
X183450000Y-122455000D03*
%TD*%
D17*
%TO.C,C8*%
X177625000Y-117600000D03*
X179175000Y-117600000D03*
%TD*%
D18*
%TO.C,SW1*%
X196200000Y-125600000D03*
X196200000Y-122200000D03*
%TD*%
D19*
%TO.C,R6*%
X175200000Y-82500000D03*
X175200000Y-80850000D03*
%TD*%
D20*
%TO.C,R4*%
X197425000Y-111400000D03*
X195775000Y-111400000D03*
%TD*%
D10*
%TO.C,C6*%
X182700000Y-106525000D03*
X182700000Y-108075000D03*
%TD*%
D21*
%TO.C,U4*%
X189387500Y-108700000D03*
X188087500Y-108700000D03*
X189387500Y-110000000D03*
X188087500Y-110000000D03*
D22*
X189987500Y-107412500D03*
X189487500Y-107412500D03*
X188987500Y-107412500D03*
X188487500Y-107412500D03*
X187987500Y-107412500D03*
X187487500Y-107412500D03*
D23*
X186800000Y-108100000D03*
X186800000Y-108600000D03*
X186800000Y-109100000D03*
X186800000Y-109600000D03*
X186800000Y-110100000D03*
X186800000Y-110600000D03*
D22*
X187487500Y-111287500D03*
X187987500Y-111287500D03*
X188487500Y-111287500D03*
X188987500Y-111287500D03*
X189487500Y-111287500D03*
X189987500Y-111287500D03*
D23*
X190675000Y-110600000D03*
X190675000Y-110100000D03*
X190675000Y-109600000D03*
X190675000Y-109100000D03*
X190675000Y-108600000D03*
X190675000Y-108100000D03*
%TD*%
D17*
%TO.C,C1*%
X180625000Y-117600000D03*
X182175000Y-117600000D03*
%TD*%
%TO.C,C2*%
X178425000Y-107000000D03*
X179975000Y-107000000D03*
%TD*%
D24*
%TO.C,U2*%
X175900000Y-115450000D03*
X178200000Y-115450000D03*
D25*
X178200000Y-109150000D03*
D24*
X180500000Y-115450000D03*
%TD*%
D18*
%TO.C,SW2*%
X200600000Y-125700000D03*
X200600000Y-122300000D03*
%TD*%
D20*
%TO.C,R11*%
X192325000Y-101900000D03*
X190675000Y-101900000D03*
%TD*%
%TO.C,R10*%
X197425000Y-105700000D03*
X195775000Y-105700000D03*
%TD*%
D26*
%TO.C,C7*%
X203300000Y-123800000D03*
X203300000Y-122250000D03*
%TD*%
D27*
%TO.C,D1*%
X178412500Y-102300000D03*
X179987500Y-102300000D03*
%TD*%
D28*
%TO.C,C9*%
X179975000Y-105500000D03*
X178425000Y-105500000D03*
%TD*%
D26*
%TO.C,R8*%
X188000000Y-115375000D03*
X188000000Y-113825000D03*
%TD*%
D29*
%TO.C,Q1*%
X197600000Y-109550000D03*
X197600000Y-107650000D03*
X195200000Y-108600000D03*
%TD*%
D26*
%TO.C,C3*%
X187300000Y-105175000D03*
X187300000Y-103625000D03*
%TD*%
D30*
%TO.C,U1*%
X178350000Y-79665000D03*
X178350000Y-80935000D03*
X178350000Y-82205000D03*
X178350000Y-83475000D03*
X178350000Y-84745000D03*
X178350000Y-86015000D03*
X178350000Y-87285000D03*
X178350000Y-88555000D03*
X178350000Y-89825000D03*
X178350000Y-91095000D03*
X178350000Y-92365000D03*
X178350000Y-93635000D03*
X178350000Y-94905000D03*
X178350000Y-96175000D03*
D31*
X181390000Y-97425000D03*
X182660000Y-97425000D03*
X183930000Y-97425000D03*
X185200000Y-97425000D03*
X186470000Y-97425000D03*
X187740000Y-97425000D03*
X189010000Y-97425000D03*
X190280000Y-97425000D03*
X191550000Y-97425000D03*
X192820000Y-97425000D03*
D30*
X195850000Y-96175000D03*
X195850000Y-94905000D03*
X195850000Y-93635000D03*
X195850000Y-92365000D03*
X195850000Y-91095000D03*
X195850000Y-89825000D03*
X195850000Y-88555000D03*
X195850000Y-87285000D03*
X195850000Y-86015000D03*
X195850000Y-84745000D03*
X195850000Y-83475000D03*
X195850000Y-82205000D03*
X195850000Y-80935000D03*
X195850000Y-79665000D03*
D32*
X184895000Y-85480000D03*
X184895000Y-87005000D03*
X184895000Y-88530000D03*
X186420000Y-85480000D03*
X186420000Y-87005000D03*
X186420000Y-88530000D03*
X187945000Y-85480000D03*
X187945000Y-87005000D03*
X187945000Y-88530000D03*
%TD*%
D26*
%TO.C,C10*%
X173700000Y-82450000D03*
X173700000Y-80900000D03*
%TD*%
D19*
%TO.C,R1*%
X182900000Y-115525000D03*
X182900000Y-113875000D03*
%TD*%
D26*
%TO.C,C4*%
X185800000Y-105175000D03*
X185800000Y-103625000D03*
%TD*%
D29*
%TO.C,Q2*%
X197600000Y-115150000D03*
X197600000Y-113250000D03*
X195200000Y-114200000D03*
%TD*%
D26*
%TO.C,R7*%
X186300000Y-115375000D03*
X186300000Y-113825000D03*
%TD*%
M02*
