%TF.GenerationSoftware,KiCad,Pcbnew,8.0.1*%
%TF.CreationDate,2024-05-10T21:43:51+08:00*%
%TF.ProjectId,ESP32wroom,45535033-3277-4726-9f6f-6d2e6b696361,rev?*%
%TF.SameCoordinates,Original*%
%TF.FileFunction,Copper,L2,Bot*%
%TF.FilePolarity,Positive*%
%FSLAX46Y46*%
G04 Gerber Fmt 4.6, Leading zero omitted, Abs format (unit mm)*
G04 Created by KiCad (PCBNEW 8.0.1) date 2024-05-10 21:43:51*
%MOMM*%
%LPD*%
G01*
G04 APERTURE LIST*
%TA.AperFunction,ComponentPad*%
%ADD10R,1.700000X1.700000*%
%TD*%
%TA.AperFunction,ComponentPad*%
%ADD11O,1.700000X1.700000*%
%TD*%
%TA.AperFunction,ComponentPad*%
%ADD12O,1.000000X2.100000*%
%TD*%
%TA.AperFunction,ComponentPad*%
%ADD13O,1.000000X1.600000*%
%TD*%
%TA.AperFunction,HeatsinkPad*%
%ADD14C,0.600000*%
%TD*%
%TA.AperFunction,ViaPad*%
%ADD15C,0.500000*%
%TD*%
%TA.AperFunction,ViaPad*%
%ADD16C,0.800000*%
%TD*%
%TA.AperFunction,Conductor*%
%ADD17C,0.250000*%
%TD*%
%TA.AperFunction,Conductor*%
%ADD18C,0.300000*%
%TD*%
%TA.AperFunction,Conductor*%
%ADD19C,0.254000*%
%TD*%
%TA.AperFunction,Conductor*%
%ADD20C,0.500000*%
%TD*%
G04 APERTURE END LIST*
D10*
%TO.P,J3,1,Pin_1*%
%TO.N,GND*%
X204000000Y-80120000D03*
D11*
%TO.P,J3,2,Pin_2*%
%TO.N,/IO23*%
X204000000Y-82660000D03*
%TO.P,J3,3,Pin_3*%
%TO.N,/IO22*%
X204000000Y-85200000D03*
%TO.P,J3,4,Pin_4*%
%TO.N,/RXD*%
X204000000Y-87740000D03*
%TO.P,J3,5,Pin_5*%
%TO.N,/TXD*%
X204000000Y-90280000D03*
%TO.P,J3,6,Pin_6*%
%TO.N,/IO21*%
X204000000Y-92820000D03*
%TO.P,J3,7,Pin_7*%
%TO.N,/IO19*%
X204000000Y-95360000D03*
%TO.P,J3,8,Pin_8*%
%TO.N,/IO18*%
X204000000Y-97900000D03*
%TO.P,J3,9,Pin_9*%
%TO.N,/IO5*%
X204000000Y-100440000D03*
%TO.P,J3,10,Pin_10*%
%TO.N,/IO17*%
X204000000Y-102980000D03*
%TO.P,J3,11,Pin_11*%
%TO.N,/IO16*%
X204000000Y-105520000D03*
%TO.P,J3,12,Pin_12*%
%TO.N,/IO4*%
X204000000Y-108060000D03*
%TO.P,J3,13,Pin_13*%
%TO.N,/IO0*%
X204000000Y-110600000D03*
%TO.P,J3,14,Pin_14*%
%TO.N,/IO2*%
X204000000Y-113140000D03*
%TO.P,J3,15,Pin_15*%
%TO.N,/IO15*%
X204000000Y-115680000D03*
%TO.P,J3,16,Pin_16*%
%TO.N,GND*%
X204000000Y-118220000D03*
%TD*%
D12*
%TO.P,J2,S1,SHIELD*%
%TO.N,GND*%
X182380000Y-123370000D03*
D13*
X182380000Y-127550000D03*
D12*
X191020000Y-123370000D03*
D13*
X191020000Y-127550000D03*
%TD*%
D14*
%TO.P,U1,39,GND*%
%TO.N,GND*%
X184895000Y-86242500D03*
X184895000Y-87767500D03*
X185657500Y-85480000D03*
X185657500Y-87005000D03*
X185657500Y-88530000D03*
X186420000Y-86242500D03*
X186420000Y-87767500D03*
X187182500Y-85480000D03*
X187182500Y-87005000D03*
X187182500Y-88530000D03*
X187945000Y-86242500D03*
X187945000Y-87767500D03*
%TD*%
D10*
%TO.P,J1,1,Pin_1*%
%TO.N,+3V3*%
X169600000Y-80700000D03*
D11*
%TO.P,J1,2,Pin_2*%
%TO.N,/EN*%
X169600000Y-83240000D03*
%TO.P,J1,3,Pin_3*%
%TO.N,/SENSOR_VP*%
X169600000Y-85780000D03*
%TO.P,J1,4,Pin_4*%
%TO.N,/SENSOR_VN*%
X169600000Y-88320000D03*
%TO.P,J1,5,Pin_5*%
%TO.N,/IO34*%
X169600000Y-90860000D03*
%TO.P,J1,6,Pin_6*%
%TO.N,/IO35*%
X169600000Y-93400000D03*
%TO.P,J1,7,Pin_7*%
%TO.N,/IO32*%
X169600000Y-95940000D03*
%TO.P,J1,8,Pin_8*%
%TO.N,/IO33*%
X169600000Y-98480000D03*
%TO.P,J1,9,Pin_9*%
%TO.N,/IO25*%
X169600000Y-101020000D03*
%TO.P,J1,10,Pin_10*%
%TO.N,/IO26*%
X169600000Y-103560000D03*
%TO.P,J1,11,Pin_11*%
%TO.N,/IO27*%
X169600000Y-106100000D03*
%TO.P,J1,12,Pin_12*%
%TO.N,/IO14*%
X169600000Y-108640000D03*
%TO.P,J1,13,Pin_13*%
%TO.N,/IO12*%
X169600000Y-111180000D03*
%TO.P,J1,14,Pin_14*%
%TO.N,/IO13*%
X169600000Y-113720000D03*
%TO.P,J1,15,Pin_15*%
%TO.N,GND*%
X169600000Y-116260000D03*
%TO.P,J1,16,Pin_16*%
%TO.N,+5V*%
X169600000Y-118800000D03*
%TD*%
D15*
%TO.N,+5V*%
X182699000Y-108075000D03*
X180499293Y-115450707D03*
D16*
%TO.N,GND*%
X183700000Y-102000000D03*
X174500000Y-121200000D03*
X192800000Y-125600000D03*
X191700000Y-117800000D03*
X180200000Y-121200000D03*
X192800000Y-122300000D03*
X187100000Y-94400000D03*
D15*
X194200000Y-115600000D03*
D16*
X178300000Y-121200000D03*
X171600000Y-90700000D03*
X191700000Y-119800000D03*
X181800000Y-121200000D03*
X195700000Y-119100000D03*
X191800000Y-113400000D03*
X182000000Y-93200000D03*
X190400000Y-120500000D03*
X187600000Y-80400000D03*
X201400000Y-116700000D03*
X199000000Y-107200000D03*
X172800000Y-117000000D03*
X182300000Y-102000000D03*
X182200000Y-80100000D03*
X183200000Y-100300000D03*
X200500000Y-109100000D03*
X191700000Y-115800000D03*
X176100000Y-112400000D03*
X201600000Y-79500000D03*
X200200000Y-115000000D03*
X171860141Y-84754778D03*
X203900000Y-129000000D03*
X191200000Y-106800000D03*
D15*
X190600000Y-113000000D03*
D16*
X183500000Y-103400000D03*
X176300000Y-79300000D03*
X181500000Y-106600000D03*
X198600000Y-127600000D03*
X174100000Y-109400000D03*
D15*
X190000000Y-106200000D03*
D16*
X192800000Y-123800000D03*
X172500000Y-121200000D03*
X199900000Y-117500000D03*
X173100000Y-114600000D03*
X180300000Y-123300000D03*
X200100000Y-129000000D03*
X172700000Y-89600000D03*
X194400000Y-117600000D03*
X192700000Y-80400000D03*
X174600000Y-117600000D03*
X170100000Y-121200000D03*
X188200000Y-128400000D03*
X196400000Y-129100000D03*
X188100000Y-126400000D03*
X191100000Y-86700000D03*
X180300000Y-125800000D03*
X183900000Y-94500000D03*
D15*
X185400000Y-111000000D03*
D16*
X178400000Y-123300000D03*
X189900000Y-99600000D03*
X173800000Y-88600000D03*
X201500000Y-111100000D03*
X178400000Y-125900000D03*
X184800000Y-128400000D03*
X199700000Y-79400000D03*
X192800000Y-127200000D03*
X204700000Y-125900000D03*
X181600000Y-85700000D03*
X184700000Y-126400000D03*
X183300000Y-117200000D03*
X188500000Y-100300000D03*
X181000000Y-103400000D03*
X188200000Y-99300000D03*
X190300000Y-118900000D03*
X176500000Y-121200000D03*
X171900000Y-81200000D03*
X179900000Y-112200000D03*
X191300000Y-94400000D03*
D15*
X189500000Y-105000000D03*
D16*
X198200000Y-79500000D03*
X200900000Y-119200000D03*
%TO.N,/EN*%
X178350000Y-82230000D03*
D15*
X200600000Y-122300000D03*
X195200000Y-114200000D03*
%TO.N,/USB_DN*%
X186758784Y-120800000D03*
X188200000Y-106300000D03*
%TO.N,/IO2*%
X192348057Y-101855828D03*
D16*
X192820000Y-97450000D03*
%TO.N,/IO15*%
X191550000Y-97450000D03*
D15*
%TO.N,/IO0*%
X196200000Y-122200000D03*
X193100000Y-111100000D03*
%TO.N,/DTR*%
X193900000Y-110700000D03*
X191900000Y-108200000D03*
%TO.N,+3V3*%
X187300000Y-105175000D03*
X182704912Y-109511573D03*
X193000000Y-103600000D03*
D16*
X178425000Y-105500000D03*
D15*
X197425000Y-105700000D03*
D16*
X175200000Y-80850000D03*
D15*
%TO.N,/RXD*%
X193900000Y-86600000D03*
X193300000Y-84100000D03*
%TO.N,/USB_DP*%
X187800000Y-120800000D03*
X189000000Y-106100000D03*
%TD*%
D17*
%TO.N,+5V*%
X181100000Y-109600000D02*
X181100000Y-114850000D01*
X181100000Y-114850000D02*
X180499293Y-115450707D01*
X182699000Y-108075000D02*
X182625000Y-108075000D01*
X182625000Y-108075000D02*
X181100000Y-109600000D01*
D18*
%TO.N,/EN*%
X178300000Y-82280000D02*
X178300000Y-92300000D01*
X200600000Y-121700000D02*
X200600000Y-122300000D01*
X195200000Y-116300000D02*
X200600000Y-121700000D01*
X178350000Y-82230000D02*
X178300000Y-82280000D01*
X195200000Y-114200000D02*
X195200000Y-116300000D01*
X195200000Y-109200000D02*
X195200000Y-114200000D01*
X178300000Y-92300000D02*
X195200000Y-109200000D01*
D19*
%TO.N,/SENSOR_VN*%
X169600000Y-88320000D02*
X169780000Y-88320000D01*
D18*
%TO.N,/USB_DN*%
X186509391Y-119070000D02*
X186149391Y-119070000D01*
X186829391Y-120190000D02*
X186829391Y-120350000D01*
X188249999Y-106349999D02*
X188249999Y-117063603D01*
X188200000Y-106300000D02*
X188249999Y-106349999D01*
X186829391Y-120350000D02*
X186829391Y-120729393D01*
X186829391Y-118484211D02*
X186829391Y-118750000D01*
X185829391Y-119390000D02*
X185829391Y-119550000D01*
X188249999Y-117063603D02*
X186829391Y-118484211D01*
X186149391Y-119870000D02*
X186509391Y-119870000D01*
X186829391Y-120729393D02*
X186758784Y-120800000D01*
X185829391Y-119550000D02*
G75*
G03*
X186149391Y-119870009I320009J0D01*
G01*
X186149391Y-119070000D02*
G75*
G03*
X185829400Y-119390000I9J-320000D01*
G01*
X186509391Y-119870000D02*
G75*
G02*
X186829400Y-120190000I9J-320000D01*
G01*
X186829391Y-118750000D02*
G75*
G02*
X186509391Y-119069991I-319991J0D01*
G01*
D19*
%TO.N,/IO2*%
X192820000Y-97450000D02*
X192700000Y-97570000D01*
X192820000Y-97450000D02*
X192870000Y-97400000D01*
X192700000Y-101503885D02*
X192200000Y-102003885D01*
X192700000Y-97570000D02*
X192700000Y-101503885D01*
X192870000Y-97400000D02*
X192900000Y-97400000D01*
X192200000Y-103880000D02*
X201460000Y-113140000D01*
X192200000Y-102003885D02*
X192200000Y-103880000D01*
X201460000Y-113140000D02*
X204000000Y-113140000D01*
%TO.N,/IO15*%
X191300000Y-104200000D02*
X202780000Y-115680000D01*
X191550000Y-97450000D02*
X191350000Y-97450000D01*
X191300000Y-97700000D02*
X191300000Y-104200000D01*
X191550000Y-97450000D02*
X191300000Y-97700000D01*
X191350000Y-97450000D02*
X191300000Y-97500000D01*
X202780000Y-115680000D02*
X204000000Y-115680000D01*
D18*
%TO.N,/IO0*%
X193100000Y-118700000D02*
X193100000Y-111100000D01*
X196200000Y-122200000D02*
X196200000Y-121800000D01*
X196200000Y-121800000D02*
X193100000Y-118700000D01*
D17*
%TO.N,/DTR*%
X193900000Y-110700000D02*
X191900000Y-108700000D01*
X191900000Y-108700000D02*
X191900000Y-108300000D01*
%TO.N,+3V3*%
X196000000Y-103600000D02*
X197425000Y-105025000D01*
D18*
X184600000Y-105700000D02*
X184900000Y-105400000D01*
X183500000Y-109500000D02*
X182700000Y-109500000D01*
X187075000Y-105400000D02*
X184900000Y-105400000D01*
X184600000Y-105700000D02*
X184600000Y-108400000D01*
X178525000Y-105400000D02*
X178425000Y-105500000D01*
X184200000Y-105400000D02*
X178525000Y-105400000D01*
X184300000Y-105400000D02*
X184200000Y-105400000D01*
X184600000Y-105400000D02*
X184200000Y-105400000D01*
D20*
X178425000Y-105500000D02*
X176100000Y-103175000D01*
X175200000Y-102300000D02*
X175200000Y-80850000D01*
D18*
X187300000Y-105175000D02*
X187075000Y-105400000D01*
X184600000Y-105400000D02*
X184600000Y-105700000D01*
D20*
X176075000Y-103175000D02*
X175200000Y-102300000D01*
D18*
X184600000Y-105700000D02*
X184300000Y-105400000D01*
D17*
X193000000Y-103600000D02*
X196000000Y-103600000D01*
D18*
X184600000Y-108400000D02*
X183500000Y-109500000D01*
D17*
X197425000Y-105025000D02*
X197425000Y-105700000D01*
D18*
X184900000Y-105400000D02*
X184600000Y-105400000D01*
D20*
X176100000Y-103175000D02*
X176075000Y-103175000D01*
D17*
%TO.N,/RXD*%
X193900000Y-86600000D02*
X193300000Y-86000000D01*
X193300000Y-86000000D02*
X193300000Y-84100000D01*
D18*
%TO.N,/USB_DP*%
X189150001Y-117436397D02*
X187729393Y-118857005D01*
X187729393Y-120729393D02*
X187800000Y-120800000D01*
X187729393Y-118857005D02*
X187729393Y-120729393D01*
X189000000Y-106100000D02*
X189150001Y-106250001D01*
X189150001Y-106250001D02*
X189150001Y-117436397D01*
%TD*%
%TA.AperFunction,Conductor*%
%TO.N,GND*%
G36*
X202879232Y-78581390D02*
G01*
X202946104Y-78601636D01*
X202991415Y-78654822D01*
X203000779Y-78724061D01*
X202971222Y-78787371D01*
X202921528Y-78821567D01*
X202907916Y-78826644D01*
X202907906Y-78826649D01*
X202792812Y-78912809D01*
X202792809Y-78912812D01*
X202706649Y-79027906D01*
X202706645Y-79027913D01*
X202656403Y-79162620D01*
X202656401Y-79162627D01*
X202650000Y-79222155D01*
X202650000Y-79870000D01*
X203566988Y-79870000D01*
X203534075Y-79927007D01*
X203500000Y-80054174D01*
X203500000Y-80185826D01*
X203534075Y-80312993D01*
X203566988Y-80370000D01*
X202650000Y-80370000D01*
X202650000Y-81017844D01*
X202656401Y-81077372D01*
X202656403Y-81077379D01*
X202706645Y-81212086D01*
X202706649Y-81212093D01*
X202792809Y-81327187D01*
X202792812Y-81327190D01*
X202907906Y-81413350D01*
X202907913Y-81413354D01*
X203039470Y-81462421D01*
X203095403Y-81504292D01*
X203119821Y-81569756D01*
X203104970Y-81638029D01*
X203083819Y-81666284D01*
X202961503Y-81788600D01*
X202825965Y-81982169D01*
X202825964Y-81982171D01*
X202726098Y-82196335D01*
X202726094Y-82196344D01*
X202664938Y-82424586D01*
X202664936Y-82424596D01*
X202644341Y-82659999D01*
X202644341Y-82660000D01*
X202664936Y-82895403D01*
X202664938Y-82895413D01*
X202726094Y-83123655D01*
X202726096Y-83123659D01*
X202726097Y-83123663D01*
X202780346Y-83239999D01*
X202825965Y-83337830D01*
X202825967Y-83337834D01*
X202961501Y-83531395D01*
X202961506Y-83531402D01*
X203128597Y-83698493D01*
X203128603Y-83698498D01*
X203314158Y-83828425D01*
X203357783Y-83883002D01*
X203364977Y-83952500D01*
X203333454Y-84014855D01*
X203314158Y-84031575D01*
X203128597Y-84161505D01*
X202961505Y-84328597D01*
X202825965Y-84522169D01*
X202825964Y-84522171D01*
X202726098Y-84736335D01*
X202726094Y-84736344D01*
X202664938Y-84964586D01*
X202664936Y-84964596D01*
X202644341Y-85199999D01*
X202644341Y-85200000D01*
X202664936Y-85435403D01*
X202664938Y-85435413D01*
X202726094Y-85663655D01*
X202726096Y-85663659D01*
X202726097Y-85663663D01*
X202825965Y-85877830D01*
X202955875Y-86063361D01*
X202961501Y-86071395D01*
X202961506Y-86071402D01*
X203128597Y-86238493D01*
X203128603Y-86238498D01*
X203314158Y-86368425D01*
X203357783Y-86423002D01*
X203364977Y-86492500D01*
X203333454Y-86554855D01*
X203314158Y-86571575D01*
X203128597Y-86701505D01*
X202961505Y-86868597D01*
X202825965Y-87062169D01*
X202825964Y-87062171D01*
X202726098Y-87276335D01*
X202726094Y-87276344D01*
X202664938Y-87504586D01*
X202664936Y-87504596D01*
X202644341Y-87739999D01*
X202644341Y-87740000D01*
X202664936Y-87975403D01*
X202664938Y-87975413D01*
X202726094Y-88203655D01*
X202726096Y-88203659D01*
X202726097Y-88203663D01*
X202780346Y-88319999D01*
X202825965Y-88417830D01*
X202825967Y-88417834D01*
X202904507Y-88530000D01*
X202954994Y-88602103D01*
X202961501Y-88611395D01*
X202961506Y-88611402D01*
X203128597Y-88778493D01*
X203128603Y-88778498D01*
X203314158Y-88908425D01*
X203357783Y-88963002D01*
X203364977Y-89032500D01*
X203333454Y-89094855D01*
X203314158Y-89111575D01*
X203128597Y-89241505D01*
X202961505Y-89408597D01*
X202825965Y-89602169D01*
X202825964Y-89602171D01*
X202726098Y-89816335D01*
X202726094Y-89816344D01*
X202664938Y-90044586D01*
X202664936Y-90044596D01*
X202644341Y-90279999D01*
X202644341Y-90280000D01*
X202664936Y-90515403D01*
X202664938Y-90515413D01*
X202726094Y-90743655D01*
X202726096Y-90743659D01*
X202726097Y-90743663D01*
X202780346Y-90859999D01*
X202825965Y-90957830D01*
X202825967Y-90957834D01*
X202961501Y-91151395D01*
X202961506Y-91151402D01*
X203128597Y-91318493D01*
X203128603Y-91318498D01*
X203314158Y-91448425D01*
X203357783Y-91503002D01*
X203364977Y-91572500D01*
X203333454Y-91634855D01*
X203314158Y-91651575D01*
X203128597Y-91781505D01*
X202961505Y-91948597D01*
X202825965Y-92142169D01*
X202825964Y-92142171D01*
X202726098Y-92356335D01*
X202726094Y-92356344D01*
X202664938Y-92584586D01*
X202664936Y-92584596D01*
X202644341Y-92819999D01*
X202644341Y-92820000D01*
X202664936Y-93055403D01*
X202664938Y-93055413D01*
X202726094Y-93283655D01*
X202726096Y-93283659D01*
X202726097Y-93283663D01*
X202780346Y-93399999D01*
X202825965Y-93497830D01*
X202825967Y-93497834D01*
X202961501Y-93691395D01*
X202961506Y-93691402D01*
X203128597Y-93858493D01*
X203128603Y-93858498D01*
X203314158Y-93988425D01*
X203357783Y-94043002D01*
X203364977Y-94112500D01*
X203333454Y-94174855D01*
X203314158Y-94191575D01*
X203128597Y-94321505D01*
X202961505Y-94488597D01*
X202825965Y-94682169D01*
X202825964Y-94682171D01*
X202726098Y-94896335D01*
X202726094Y-94896344D01*
X202664938Y-95124586D01*
X202664936Y-95124596D01*
X202644341Y-95359999D01*
X202644341Y-95360000D01*
X202664936Y-95595403D01*
X202664938Y-95595413D01*
X202726094Y-95823655D01*
X202726096Y-95823659D01*
X202726097Y-95823663D01*
X202780346Y-95939999D01*
X202825965Y-96037830D01*
X202825967Y-96037834D01*
X202961501Y-96231395D01*
X202961506Y-96231402D01*
X203128597Y-96398493D01*
X203128603Y-96398498D01*
X203314158Y-96528425D01*
X203357783Y-96583002D01*
X203364977Y-96652500D01*
X203333454Y-96714855D01*
X203314158Y-96731575D01*
X203128597Y-96861505D01*
X202961505Y-97028597D01*
X202825965Y-97222169D01*
X202825964Y-97222171D01*
X202726098Y-97436335D01*
X202726094Y-97436344D01*
X202664938Y-97664586D01*
X202664936Y-97664596D01*
X202644341Y-97899999D01*
X202644341Y-97900000D01*
X202664936Y-98135403D01*
X202664938Y-98135413D01*
X202726094Y-98363655D01*
X202726096Y-98363659D01*
X202726097Y-98363663D01*
X202780346Y-98479999D01*
X202825965Y-98577830D01*
X202825967Y-98577834D01*
X202961501Y-98771395D01*
X202961506Y-98771402D01*
X203128597Y-98938493D01*
X203128603Y-98938498D01*
X203314158Y-99068425D01*
X203357783Y-99123002D01*
X203364977Y-99192500D01*
X203333454Y-99254855D01*
X203314158Y-99271575D01*
X203128597Y-99401505D01*
X202961505Y-99568597D01*
X202825965Y-99762169D01*
X202825964Y-99762171D01*
X202726098Y-99976335D01*
X202726094Y-99976344D01*
X202664938Y-100204586D01*
X202664936Y-100204596D01*
X202644341Y-100439999D01*
X202644341Y-100440000D01*
X202664936Y-100675403D01*
X202664938Y-100675413D01*
X202726094Y-100903655D01*
X202726096Y-100903659D01*
X202726097Y-100903663D01*
X202780346Y-101019999D01*
X202825965Y-101117830D01*
X202825967Y-101117834D01*
X202961501Y-101311395D01*
X202961506Y-101311402D01*
X203128597Y-101478493D01*
X203128603Y-101478498D01*
X203314158Y-101608425D01*
X203357783Y-101663002D01*
X203364977Y-101732500D01*
X203333454Y-101794855D01*
X203314158Y-101811575D01*
X203128597Y-101941505D01*
X202961505Y-102108597D01*
X202825965Y-102302169D01*
X202825964Y-102302171D01*
X202726098Y-102516335D01*
X202726094Y-102516344D01*
X202664938Y-102744586D01*
X202664936Y-102744596D01*
X202644341Y-102979999D01*
X202644341Y-102980000D01*
X202664936Y-103215403D01*
X202664938Y-103215413D01*
X202726094Y-103443655D01*
X202726096Y-103443659D01*
X202726097Y-103443663D01*
X202787774Y-103575930D01*
X202825965Y-103657830D01*
X202825967Y-103657834D01*
X202961501Y-103851395D01*
X202961506Y-103851402D01*
X203128597Y-104018493D01*
X203128603Y-104018498D01*
X203314158Y-104148425D01*
X203357783Y-104203002D01*
X203364977Y-104272500D01*
X203333454Y-104334855D01*
X203314158Y-104351575D01*
X203128597Y-104481505D01*
X202961505Y-104648597D01*
X202825965Y-104842169D01*
X202825964Y-104842171D01*
X202726098Y-105056335D01*
X202726094Y-105056344D01*
X202664938Y-105284586D01*
X202664936Y-105284596D01*
X202644341Y-105519999D01*
X202644341Y-105520000D01*
X202664936Y-105755403D01*
X202664938Y-105755413D01*
X202726094Y-105983655D01*
X202726096Y-105983659D01*
X202726097Y-105983663D01*
X202800276Y-106142739D01*
X202825965Y-106197830D01*
X202825967Y-106197834D01*
X202922295Y-106335403D01*
X202953838Y-106380452D01*
X202961501Y-106391395D01*
X202961506Y-106391402D01*
X203128597Y-106558493D01*
X203128603Y-106558498D01*
X203314158Y-106688425D01*
X203357783Y-106743002D01*
X203364977Y-106812500D01*
X203333454Y-106874855D01*
X203314158Y-106891575D01*
X203128597Y-107021505D01*
X202961505Y-107188597D01*
X202825965Y-107382169D01*
X202825964Y-107382171D01*
X202726098Y-107596335D01*
X202726094Y-107596344D01*
X202664938Y-107824586D01*
X202664936Y-107824596D01*
X202644341Y-108059999D01*
X202644341Y-108060000D01*
X202664936Y-108295403D01*
X202664938Y-108295413D01*
X202726094Y-108523655D01*
X202726096Y-108523659D01*
X202726097Y-108523663D01*
X202780346Y-108639999D01*
X202825965Y-108737830D01*
X202825967Y-108737834D01*
X202961501Y-108931395D01*
X202961506Y-108931402D01*
X203128597Y-109098493D01*
X203128603Y-109098498D01*
X203314158Y-109228425D01*
X203357783Y-109283002D01*
X203364977Y-109352500D01*
X203333454Y-109414855D01*
X203314158Y-109431575D01*
X203128597Y-109561505D01*
X202961505Y-109728597D01*
X202825965Y-109922169D01*
X202825964Y-109922171D01*
X202726098Y-110136335D01*
X202726094Y-110136344D01*
X202664938Y-110364586D01*
X202664936Y-110364596D01*
X202644341Y-110599999D01*
X202644341Y-110600000D01*
X202664936Y-110835403D01*
X202664938Y-110835413D01*
X202726094Y-111063655D01*
X202726096Y-111063659D01*
X202726097Y-111063663D01*
X202769031Y-111155734D01*
X202825965Y-111277830D01*
X202825967Y-111277834D01*
X202896838Y-111379047D01*
X202961501Y-111471396D01*
X202961506Y-111471402D01*
X203128597Y-111638493D01*
X203128603Y-111638498D01*
X203308614Y-111764543D01*
X203352239Y-111819120D01*
X203359433Y-111888618D01*
X203327910Y-111950973D01*
X203291046Y-111977956D01*
X202200165Y-112500338D01*
X202146610Y-112512500D01*
X201771281Y-112512500D01*
X201704242Y-112492815D01*
X201683600Y-112476181D01*
X193644600Y-104437181D01*
X193611115Y-104375858D01*
X193616099Y-104306166D01*
X193657971Y-104250233D01*
X193723435Y-104225816D01*
X193732281Y-104225500D01*
X195689548Y-104225500D01*
X195756587Y-104245185D01*
X195777229Y-104261819D01*
X196714244Y-105198835D01*
X196747729Y-105260158D01*
X196746512Y-105317952D01*
X196707617Y-105466357D01*
X196702028Y-105489418D01*
X196701962Y-105489402D01*
X196697818Y-105505844D01*
X196688687Y-105531941D01*
X196688685Y-105531946D01*
X196669751Y-105699997D01*
X196669751Y-105700002D01*
X196688685Y-105868056D01*
X196744545Y-106027694D01*
X196744547Y-106027697D01*
X196834518Y-106170884D01*
X196834523Y-106170890D01*
X196954109Y-106290476D01*
X196954115Y-106290481D01*
X197097302Y-106380452D01*
X197097305Y-106380454D01*
X197097309Y-106380455D01*
X197097310Y-106380456D01*
X197128592Y-106391402D01*
X197256943Y-106436314D01*
X197424997Y-106455249D01*
X197425000Y-106455249D01*
X197425003Y-106455249D01*
X197593056Y-106436314D01*
X197602493Y-106433012D01*
X197752690Y-106380456D01*
X197752692Y-106380454D01*
X197752694Y-106380454D01*
X197752697Y-106380452D01*
X197895884Y-106290481D01*
X197895885Y-106290480D01*
X197895890Y-106290477D01*
X198015477Y-106170890D01*
X198033166Y-106142739D01*
X198105452Y-106027697D01*
X198105454Y-106027694D01*
X198105454Y-106027692D01*
X198105456Y-106027690D01*
X198161313Y-105868059D01*
X198161313Y-105868058D01*
X198161314Y-105868056D01*
X198180249Y-105700002D01*
X198180249Y-105699997D01*
X198161314Y-105531947D01*
X198161313Y-105531945D01*
X198161313Y-105531941D01*
X198148904Y-105496480D01*
X198142745Y-105469570D01*
X198142377Y-105466338D01*
X198054551Y-105131235D01*
X198050500Y-105099798D01*
X198050500Y-104963394D01*
X198049260Y-104957162D01*
X198049258Y-104957154D01*
X198026463Y-104842549D01*
X198026306Y-104842171D01*
X197986997Y-104747269D01*
X197979314Y-104728720D01*
X197979307Y-104728707D01*
X197910859Y-104626268D01*
X197869109Y-104584518D01*
X197823733Y-104539142D01*
X197823732Y-104539141D01*
X196492927Y-103208337D01*
X196492925Y-103208334D01*
X196492925Y-103208335D01*
X196485858Y-103201268D01*
X196485858Y-103201267D01*
X196398733Y-103114142D01*
X196332676Y-103070004D01*
X196332677Y-103070004D01*
X196332675Y-103070002D01*
X196296289Y-103045690D01*
X196296288Y-103045689D01*
X196296286Y-103045688D01*
X196208974Y-103009523D01*
X196182452Y-102998537D01*
X196182447Y-102998536D01*
X196182444Y-102998535D01*
X196107999Y-102983726D01*
X196107990Y-102983726D01*
X196061607Y-102974500D01*
X196061606Y-102974500D01*
X193600202Y-102974500D01*
X193568765Y-102970449D01*
X193233670Y-102882624D01*
X193229479Y-102881608D01*
X193215443Y-102878207D01*
X193215439Y-102878206D01*
X193210587Y-102877031D01*
X193210603Y-102876964D01*
X193194157Y-102872818D01*
X193168063Y-102863688D01*
X193168053Y-102863685D01*
X193000003Y-102844751D01*
X192999997Y-102844751D01*
X192965384Y-102848651D01*
X192896562Y-102836597D01*
X192845182Y-102789248D01*
X192827500Y-102725431D01*
X192827500Y-102515036D01*
X192847185Y-102447997D01*
X192851582Y-102441604D01*
X192923454Y-102343808D01*
X192935690Y-102329561D01*
X192938534Y-102326718D01*
X193024704Y-102189577D01*
X193025685Y-102188042D01*
X193026763Y-102186381D01*
X193026767Y-102186377D01*
X193026770Y-102186371D01*
X193027794Y-102184795D01*
X193028452Y-102183676D01*
X193031346Y-102178067D01*
X193097251Y-102058498D01*
X193167911Y-101930301D01*
X193183964Y-101908948D01*
X193183545Y-101908604D01*
X193187405Y-101903900D01*
X193187407Y-101903896D01*
X193187411Y-101903893D01*
X193231127Y-101838467D01*
X193256083Y-101801118D01*
X193290906Y-101717048D01*
X193303386Y-101686919D01*
X193327500Y-101565688D01*
X193327500Y-101442082D01*
X193327500Y-98404544D01*
X193344324Y-98342179D01*
X193420331Y-98211559D01*
X193619749Y-97868853D01*
X193635621Y-97839371D01*
X193636307Y-97837989D01*
X193636308Y-97837984D01*
X193637501Y-97835583D01*
X193637644Y-97835654D01*
X193641277Y-97828507D01*
X193647173Y-97818294D01*
X193647179Y-97818284D01*
X193661000Y-97775745D01*
X193663500Y-97768771D01*
X193668209Y-97756787D01*
X193668210Y-97756778D01*
X193670035Y-97749913D01*
X193670202Y-97749957D01*
X193672312Y-97740931D01*
X193697115Y-97664596D01*
X193705674Y-97638256D01*
X193725460Y-97450000D01*
X193705674Y-97261744D01*
X193647179Y-97081716D01*
X193552533Y-96917784D01*
X193425871Y-96777112D01*
X193425870Y-96777111D01*
X193272734Y-96665851D01*
X193272729Y-96665848D01*
X193099807Y-96588857D01*
X193099802Y-96588855D01*
X192954001Y-96557865D01*
X192914646Y-96549500D01*
X192725354Y-96549500D01*
X192692897Y-96556398D01*
X192540197Y-96588855D01*
X192540192Y-96588857D01*
X192367270Y-96665848D01*
X192367265Y-96665851D01*
X192257885Y-96745321D01*
X192192079Y-96768801D01*
X192124025Y-96752975D01*
X192112115Y-96745321D01*
X192002734Y-96665851D01*
X192002729Y-96665848D01*
X191829807Y-96588857D01*
X191829802Y-96588855D01*
X191684001Y-96557865D01*
X191644646Y-96549500D01*
X191455354Y-96549500D01*
X191422897Y-96556398D01*
X191270197Y-96588855D01*
X191270192Y-96588857D01*
X191097270Y-96665848D01*
X191097265Y-96665851D01*
X190944129Y-96777111D01*
X190817466Y-96917785D01*
X190722821Y-97081715D01*
X190722818Y-97081722D01*
X190677184Y-97222171D01*
X190664326Y-97261744D01*
X190645433Y-97441501D01*
X190644540Y-97450002D01*
X190644540Y-97450007D01*
X190644983Y-97454225D01*
X190644930Y-97474094D01*
X190645334Y-97474110D01*
X190645162Y-97478537D01*
X190667399Y-98159943D01*
X190667401Y-98159984D01*
X190671435Y-98211551D01*
X190671325Y-98211559D01*
X190672500Y-98225171D01*
X190672500Y-103453192D01*
X190652815Y-103520231D01*
X190600011Y-103565986D01*
X190530853Y-103575930D01*
X190467297Y-103546905D01*
X190460819Y-103540873D01*
X178986819Y-92066873D01*
X178953334Y-92005550D01*
X178950500Y-91979192D01*
X178950500Y-89246661D01*
X185294392Y-89246661D01*
X185308192Y-89255333D01*
X185308191Y-89255333D01*
X185478361Y-89314878D01*
X185657497Y-89335062D01*
X185657503Y-89335062D01*
X185836638Y-89314878D01*
X185836641Y-89314877D01*
X186006805Y-89255334D01*
X186006806Y-89255334D01*
X186020606Y-89246661D01*
X186819392Y-89246661D01*
X186833192Y-89255333D01*
X186833191Y-89255333D01*
X187003361Y-89314878D01*
X187182497Y-89335062D01*
X187182503Y-89335062D01*
X187361638Y-89314878D01*
X187361641Y-89314877D01*
X187531805Y-89255334D01*
X187531806Y-89255334D01*
X187545606Y-89246661D01*
X187545606Y-89246660D01*
X187182501Y-88883553D01*
X187182500Y-88883553D01*
X186819392Y-89246660D01*
X186819392Y-89246661D01*
X186020606Y-89246661D01*
X186020606Y-89246660D01*
X185657501Y-88883553D01*
X185657500Y-88883553D01*
X185294392Y-89246660D01*
X185294392Y-89246661D01*
X178950500Y-89246661D01*
X178950500Y-88484161D01*
X184531892Y-88484161D01*
X184545692Y-88492833D01*
X184545691Y-88492833D01*
X184715861Y-88552378D01*
X184758482Y-88557180D01*
X184822896Y-88584246D01*
X184862451Y-88641840D01*
X184867819Y-88666515D01*
X184872621Y-88709138D01*
X184932165Y-88879304D01*
X184940838Y-88893107D01*
X185284055Y-88549891D01*
X185557500Y-88549891D01*
X185572724Y-88586645D01*
X185600855Y-88614776D01*
X185637609Y-88630000D01*
X185677391Y-88630000D01*
X185714145Y-88614776D01*
X185742276Y-88586645D01*
X185757500Y-88549891D01*
X185757500Y-88530000D01*
X186011053Y-88530000D01*
X186374160Y-88893106D01*
X186406122Y-88889506D01*
X186433885Y-88889507D01*
X186465838Y-88893107D01*
X186809055Y-88549891D01*
X187082500Y-88549891D01*
X187097724Y-88586645D01*
X187125855Y-88614776D01*
X187162609Y-88630000D01*
X187202391Y-88630000D01*
X187239145Y-88614776D01*
X187267276Y-88586645D01*
X187282500Y-88549891D01*
X187282500Y-88530000D01*
X187536053Y-88530000D01*
X187899160Y-88893106D01*
X187899161Y-88893106D01*
X187907834Y-88879306D01*
X187907834Y-88879305D01*
X187967378Y-88709139D01*
X187972180Y-88666518D01*
X187999246Y-88602103D01*
X188056840Y-88562548D01*
X188081518Y-88557180D01*
X188124139Y-88552378D01*
X188294305Y-88492834D01*
X188294306Y-88492834D01*
X188308106Y-88484161D01*
X188308106Y-88484160D01*
X187945000Y-88121053D01*
X187889608Y-88176446D01*
X187889607Y-88176447D01*
X187536053Y-88530000D01*
X187282500Y-88530000D01*
X187282500Y-88510109D01*
X187267276Y-88473355D01*
X187239145Y-88445224D01*
X187202391Y-88430000D01*
X187162609Y-88430000D01*
X187125855Y-88445224D01*
X187097724Y-88473355D01*
X187082500Y-88510109D01*
X187082500Y-88549891D01*
X186809055Y-88549891D01*
X186828946Y-88530000D01*
X186475392Y-88176446D01*
X186420000Y-88121053D01*
X186364608Y-88176446D01*
X186364607Y-88176448D01*
X186011053Y-88529999D01*
X186011053Y-88530000D01*
X185757500Y-88530000D01*
X185757500Y-88510109D01*
X185742276Y-88473355D01*
X185714145Y-88445224D01*
X185677391Y-88430000D01*
X185637609Y-88430000D01*
X185600855Y-88445224D01*
X185572724Y-88473355D01*
X185557500Y-88510109D01*
X185557500Y-88549891D01*
X185284055Y-88549891D01*
X185303946Y-88530000D01*
X184894999Y-88121053D01*
X184894998Y-88121053D01*
X184531892Y-88484160D01*
X184531892Y-88484161D01*
X178950500Y-88484161D01*
X178950500Y-87767502D01*
X184089938Y-87767502D01*
X184110121Y-87946638D01*
X184169665Y-88116804D01*
X184178338Y-88130607D01*
X184521555Y-87787391D01*
X184795000Y-87787391D01*
X184810224Y-87824145D01*
X184838355Y-87852276D01*
X184875109Y-87867500D01*
X184914891Y-87867500D01*
X184951645Y-87852276D01*
X184979776Y-87824145D01*
X184995000Y-87787391D01*
X184995000Y-87767499D01*
X185248553Y-87767499D01*
X185657500Y-88176446D01*
X186046555Y-87787391D01*
X186320000Y-87787391D01*
X186335224Y-87824145D01*
X186363355Y-87852276D01*
X186400109Y-87867500D01*
X186439891Y-87867500D01*
X186476645Y-87852276D01*
X186504776Y-87824145D01*
X186520000Y-87787391D01*
X186520000Y-87767499D01*
X186773553Y-87767499D01*
X187182500Y-88176446D01*
X187571555Y-87787391D01*
X187845000Y-87787391D01*
X187860224Y-87824145D01*
X187888355Y-87852276D01*
X187925109Y-87867500D01*
X187964891Y-87867500D01*
X188001645Y-87852276D01*
X188029776Y-87824145D01*
X188045000Y-87787391D01*
X188045000Y-87767500D01*
X188298553Y-87767500D01*
X188661660Y-88130606D01*
X188661661Y-88130606D01*
X188670334Y-88116806D01*
X188670334Y-88116805D01*
X188729877Y-87946641D01*
X188729878Y-87946638D01*
X188750062Y-87767502D01*
X188750062Y-87767497D01*
X188729878Y-87588361D01*
X188670333Y-87418192D01*
X188661661Y-87404392D01*
X188661660Y-87404392D01*
X188298553Y-87767500D01*
X188045000Y-87767500D01*
X188045000Y-87747609D01*
X188029776Y-87710855D01*
X188001645Y-87682724D01*
X187964891Y-87667500D01*
X187925109Y-87667500D01*
X187888355Y-87682724D01*
X187860224Y-87710855D01*
X187845000Y-87747609D01*
X187845000Y-87787391D01*
X187571555Y-87787391D01*
X187591446Y-87767500D01*
X187237892Y-87413946D01*
X187182500Y-87358553D01*
X187127108Y-87413946D01*
X187127107Y-87413947D01*
X186773553Y-87767499D01*
X186520000Y-87767499D01*
X186520000Y-87747609D01*
X186504776Y-87710855D01*
X186476645Y-87682724D01*
X186439891Y-87667500D01*
X186400109Y-87667500D01*
X186363355Y-87682724D01*
X186335224Y-87710855D01*
X186320000Y-87747609D01*
X186320000Y-87787391D01*
X186046555Y-87787391D01*
X186066446Y-87767500D01*
X185712892Y-87413946D01*
X185657500Y-87358553D01*
X185602108Y-87413946D01*
X185602107Y-87413947D01*
X185248553Y-87767499D01*
X184995000Y-87767499D01*
X184995000Y-87747609D01*
X184979776Y-87710855D01*
X184951645Y-87682724D01*
X184914891Y-87667500D01*
X184875109Y-87667500D01*
X184838355Y-87682724D01*
X184810224Y-87710855D01*
X184795000Y-87747609D01*
X184795000Y-87787391D01*
X184521555Y-87787391D01*
X184541446Y-87767500D01*
X184541446Y-87767499D01*
X184178338Y-87404391D01*
X184178337Y-87404391D01*
X184169667Y-87418191D01*
X184169662Y-87418201D01*
X184110122Y-87588358D01*
X184110121Y-87588361D01*
X184089938Y-87767497D01*
X184089938Y-87767502D01*
X178950500Y-87767502D01*
X178950500Y-87050838D01*
X184531891Y-87050838D01*
X184894998Y-87413946D01*
X184894999Y-87413946D01*
X185266782Y-87042164D01*
X185284055Y-87024891D01*
X185557500Y-87024891D01*
X185572724Y-87061645D01*
X185600855Y-87089776D01*
X185637609Y-87105000D01*
X185677391Y-87105000D01*
X185714145Y-87089776D01*
X185742276Y-87061645D01*
X185757500Y-87024891D01*
X185757500Y-87005000D01*
X186011053Y-87005000D01*
X186048217Y-87042163D01*
X186420000Y-87413946D01*
X186809055Y-87024891D01*
X187082500Y-87024891D01*
X187097724Y-87061645D01*
X187125855Y-87089776D01*
X187162609Y-87105000D01*
X187202391Y-87105000D01*
X187239145Y-87089776D01*
X187267276Y-87061645D01*
X187282500Y-87024891D01*
X187282500Y-87005000D01*
X187536053Y-87005000D01*
X187573217Y-87042163D01*
X187945000Y-87413946D01*
X187945001Y-87413946D01*
X188308107Y-87050838D01*
X188304507Y-87018885D01*
X188304506Y-86991122D01*
X188308106Y-86959160D01*
X187945000Y-86596053D01*
X187911868Y-86629186D01*
X187911866Y-86629187D01*
X187536053Y-87005000D01*
X187282500Y-87005000D01*
X187282500Y-86985109D01*
X187267276Y-86948355D01*
X187239145Y-86920224D01*
X187202391Y-86905000D01*
X187162609Y-86905000D01*
X187125855Y-86920224D01*
X187097724Y-86948355D01*
X187082500Y-86985109D01*
X187082500Y-87024891D01*
X186809055Y-87024891D01*
X186828946Y-87005000D01*
X186453132Y-86629186D01*
X186420000Y-86596053D01*
X186386868Y-86629186D01*
X186386866Y-86629187D01*
X186011053Y-87005000D01*
X185757500Y-87005000D01*
X185757500Y-86985109D01*
X185742276Y-86948355D01*
X185714145Y-86920224D01*
X185677391Y-86905000D01*
X185637609Y-86905000D01*
X185600855Y-86920224D01*
X185572724Y-86948355D01*
X185557500Y-86985109D01*
X185557500Y-87024891D01*
X185284055Y-87024891D01*
X185303946Y-87005000D01*
X184894999Y-86596053D01*
X184894998Y-86596053D01*
X184531892Y-86959160D01*
X184535493Y-86991119D01*
X184535492Y-87018884D01*
X184531891Y-87050838D01*
X178950500Y-87050838D01*
X178950500Y-86242502D01*
X184089938Y-86242502D01*
X184110121Y-86421638D01*
X184169665Y-86591804D01*
X184178338Y-86605607D01*
X184521555Y-86262391D01*
X184795000Y-86262391D01*
X184810224Y-86299145D01*
X184838355Y-86327276D01*
X184875109Y-86342500D01*
X184914891Y-86342500D01*
X184951645Y-86327276D01*
X184979776Y-86299145D01*
X184995000Y-86262391D01*
X184995000Y-86242500D01*
X185248553Y-86242500D01*
X185302340Y-86296286D01*
X185657500Y-86651446D01*
X186046555Y-86262391D01*
X186320000Y-86262391D01*
X186335224Y-86299145D01*
X186363355Y-86327276D01*
X186400109Y-86342500D01*
X186439891Y-86342500D01*
X186476645Y-86327276D01*
X186504776Y-86299145D01*
X186520000Y-86262391D01*
X186520000Y-86242500D01*
X186773553Y-86242500D01*
X186827340Y-86296286D01*
X187182500Y-86651446D01*
X187571555Y-86262391D01*
X187845000Y-86262391D01*
X187860224Y-86299145D01*
X187888355Y-86327276D01*
X187925109Y-86342500D01*
X187964891Y-86342500D01*
X188001645Y-86327276D01*
X188029776Y-86299145D01*
X188045000Y-86262391D01*
X188045000Y-86242500D01*
X188298552Y-86242500D01*
X188661660Y-86605606D01*
X188661661Y-86605606D01*
X188670334Y-86591806D01*
X188670334Y-86591805D01*
X188729877Y-86421641D01*
X188729878Y-86421638D01*
X188750062Y-86242502D01*
X188750062Y-86242497D01*
X188729878Y-86063361D01*
X188670333Y-85893192D01*
X188661661Y-85879392D01*
X188661660Y-85879392D01*
X188298552Y-86242500D01*
X188045000Y-86242500D01*
X188045000Y-86222609D01*
X188029776Y-86185855D01*
X188001645Y-86157724D01*
X187964891Y-86142500D01*
X187925109Y-86142500D01*
X187888355Y-86157724D01*
X187860224Y-86185855D01*
X187845000Y-86222609D01*
X187845000Y-86262391D01*
X187571555Y-86262391D01*
X187591446Y-86242500D01*
X187226775Y-85877829D01*
X187182500Y-85833553D01*
X187138225Y-85877829D01*
X187138224Y-85877830D01*
X186773553Y-86242500D01*
X186520000Y-86242500D01*
X186520000Y-86222609D01*
X186504776Y-86185855D01*
X186476645Y-86157724D01*
X186439891Y-86142500D01*
X186400109Y-86142500D01*
X186363355Y-86157724D01*
X186335224Y-86185855D01*
X186320000Y-86222609D01*
X186320000Y-86262391D01*
X186046555Y-86262391D01*
X186066446Y-86242500D01*
X185701775Y-85877829D01*
X185657500Y-85833553D01*
X185613225Y-85877829D01*
X185613224Y-85877830D01*
X185248553Y-86242500D01*
X184995000Y-86242500D01*
X184995000Y-86222609D01*
X184979776Y-86185855D01*
X184951645Y-86157724D01*
X184914891Y-86142500D01*
X184875109Y-86142500D01*
X184838355Y-86157724D01*
X184810224Y-86185855D01*
X184795000Y-86222609D01*
X184795000Y-86262391D01*
X184521555Y-86262391D01*
X184541446Y-86242500D01*
X184541446Y-86242499D01*
X184178338Y-85879391D01*
X184178337Y-85879391D01*
X184169667Y-85893191D01*
X184169662Y-85893201D01*
X184110122Y-86063358D01*
X184110121Y-86063361D01*
X184089938Y-86242497D01*
X184089938Y-86242502D01*
X178950500Y-86242502D01*
X178950500Y-85525838D01*
X184531891Y-85525838D01*
X184894998Y-85888946D01*
X184894999Y-85888946D01*
X185266783Y-85517164D01*
X185284055Y-85499891D01*
X185557500Y-85499891D01*
X185572724Y-85536645D01*
X185600855Y-85564776D01*
X185637609Y-85580000D01*
X185677391Y-85580000D01*
X185714145Y-85564776D01*
X185742276Y-85536645D01*
X185757500Y-85499891D01*
X185757500Y-85479999D01*
X186011053Y-85479999D01*
X186420000Y-85888946D01*
X186791783Y-85517164D01*
X186809055Y-85499891D01*
X187082500Y-85499891D01*
X187097724Y-85536645D01*
X187125855Y-85564776D01*
X187162609Y-85580000D01*
X187202391Y-85580000D01*
X187239145Y-85564776D01*
X187267276Y-85536645D01*
X187282500Y-85499891D01*
X187282500Y-85479999D01*
X187536053Y-85479999D01*
X187945000Y-85888946D01*
X187945001Y-85888946D01*
X188308107Y-85525838D01*
X188294304Y-85517165D01*
X188124138Y-85457621D01*
X188081515Y-85452819D01*
X188017102Y-85425752D01*
X187977547Y-85368157D01*
X187972180Y-85343482D01*
X187967378Y-85300861D01*
X187907833Y-85130692D01*
X187899161Y-85116892D01*
X187899160Y-85116892D01*
X187536053Y-85479998D01*
X187536053Y-85479999D01*
X187282500Y-85479999D01*
X187282500Y-85460109D01*
X187267276Y-85423355D01*
X187239145Y-85395224D01*
X187202391Y-85380000D01*
X187162609Y-85380000D01*
X187125855Y-85395224D01*
X187097724Y-85423355D01*
X187082500Y-85460109D01*
X187082500Y-85499891D01*
X186809055Y-85499891D01*
X186828946Y-85479999D01*
X186828946Y-85479998D01*
X186465837Y-85116890D01*
X186433885Y-85120491D01*
X186406122Y-85120492D01*
X186374160Y-85116891D01*
X186011053Y-85479998D01*
X186011053Y-85479999D01*
X185757500Y-85479999D01*
X185757500Y-85460109D01*
X185742276Y-85423355D01*
X185714145Y-85395224D01*
X185677391Y-85380000D01*
X185637609Y-85380000D01*
X185600855Y-85395224D01*
X185572724Y-85423355D01*
X185557500Y-85460109D01*
X185557500Y-85499891D01*
X185284055Y-85499891D01*
X185303946Y-85479999D01*
X185303946Y-85479998D01*
X184940838Y-85116891D01*
X184940837Y-85116891D01*
X184932167Y-85130691D01*
X184932162Y-85130701D01*
X184872622Y-85300858D01*
X184867819Y-85343484D01*
X184840752Y-85407898D01*
X184783156Y-85447452D01*
X184758484Y-85452819D01*
X184715858Y-85457622D01*
X184545701Y-85517162D01*
X184545694Y-85517166D01*
X184531891Y-85525837D01*
X184531891Y-85525838D01*
X178950500Y-85525838D01*
X178950500Y-84763338D01*
X185294391Y-84763338D01*
X185657500Y-85126446D01*
X185657501Y-85126446D01*
X186020607Y-84763338D01*
X186819391Y-84763338D01*
X187182500Y-85126446D01*
X187182501Y-85126446D01*
X187545607Y-84763338D01*
X187531804Y-84754665D01*
X187361638Y-84695121D01*
X187182503Y-84674938D01*
X187182497Y-84674938D01*
X187003361Y-84695121D01*
X187003358Y-84695122D01*
X186833201Y-84754662D01*
X186833191Y-84754667D01*
X186819391Y-84763337D01*
X186819391Y-84763338D01*
X186020607Y-84763338D01*
X186006804Y-84754665D01*
X185836638Y-84695121D01*
X185657503Y-84674938D01*
X185657497Y-84674938D01*
X185478361Y-84695121D01*
X185478358Y-84695122D01*
X185308201Y-84754662D01*
X185308191Y-84754667D01*
X185294391Y-84763337D01*
X185294391Y-84763338D01*
X178950500Y-84763338D01*
X178950500Y-84100002D01*
X192544751Y-84100002D01*
X192563685Y-84268053D01*
X192563686Y-84268058D01*
X192563687Y-84268059D01*
X192572816Y-84294149D01*
X192576092Y-84303509D01*
X192582251Y-84330410D01*
X192582621Y-84333657D01*
X192582623Y-84333667D01*
X192670449Y-84668765D01*
X192674500Y-84700202D01*
X192674500Y-86061607D01*
X192677548Y-86076929D01*
X192677548Y-86076933D01*
X192698535Y-86182444D01*
X192698538Y-86182454D01*
X192712347Y-86215792D01*
X192712347Y-86215793D01*
X192745685Y-86296281D01*
X192745687Y-86296284D01*
X192745688Y-86296286D01*
X192766396Y-86327276D01*
X192769352Y-86331700D01*
X192769353Y-86331702D01*
X192814141Y-86398732D01*
X192814144Y-86398736D01*
X192905586Y-86490178D01*
X192905608Y-86490198D01*
X193033296Y-86617886D01*
X193052661Y-86642980D01*
X193227512Y-86942037D01*
X193237247Y-86958002D01*
X193240187Y-86962049D01*
X193240126Y-86962092D01*
X193247156Y-86971636D01*
X193280619Y-87024891D01*
X193304044Y-87062171D01*
X193309522Y-87070888D01*
X193309525Y-87070892D01*
X193429109Y-87190476D01*
X193429115Y-87190481D01*
X193572302Y-87280452D01*
X193572305Y-87280454D01*
X193572309Y-87280455D01*
X193572310Y-87280456D01*
X193575311Y-87281506D01*
X193731943Y-87336314D01*
X193899997Y-87355249D01*
X193900000Y-87355249D01*
X193900003Y-87355249D01*
X194068056Y-87336314D01*
X194068059Y-87336313D01*
X194227690Y-87280456D01*
X194227692Y-87280454D01*
X194227694Y-87280454D01*
X194227697Y-87280452D01*
X194370884Y-87190481D01*
X194370885Y-87190480D01*
X194370890Y-87190477D01*
X194490477Y-87070890D01*
X194508527Y-87042164D01*
X194580452Y-86927697D01*
X194580454Y-86927694D01*
X194580454Y-86927692D01*
X194580456Y-86927690D01*
X194636313Y-86768059D01*
X194636313Y-86768058D01*
X194636314Y-86768056D01*
X194655249Y-86600002D01*
X194655249Y-86599997D01*
X194636314Y-86431943D01*
X194589846Y-86299145D01*
X194580456Y-86272310D01*
X194580455Y-86272309D01*
X194580454Y-86272305D01*
X194580452Y-86272302D01*
X194490481Y-86129115D01*
X194490476Y-86129109D01*
X194370888Y-86009521D01*
X194254124Y-85936153D01*
X194242919Y-85928214D01*
X194242042Y-85927516D01*
X194242037Y-85927513D01*
X193986913Y-85778348D01*
X193938975Y-85727518D01*
X193925500Y-85671302D01*
X193925500Y-84700199D01*
X193929551Y-84668762D01*
X193948921Y-84594855D01*
X194017377Y-84333660D01*
X194021792Y-84315443D01*
X194021792Y-84315439D01*
X194022971Y-84310577D01*
X194023039Y-84310593D01*
X194027177Y-84294164D01*
X194036313Y-84268059D01*
X194038799Y-84246002D01*
X194055249Y-84100002D01*
X194055249Y-84099997D01*
X194036314Y-83931943D01*
X193980454Y-83772305D01*
X193980452Y-83772302D01*
X193890481Y-83629115D01*
X193890476Y-83629109D01*
X193770890Y-83509523D01*
X193770884Y-83509518D01*
X193627697Y-83419547D01*
X193627694Y-83419545D01*
X193468056Y-83363685D01*
X193300003Y-83344751D01*
X193299997Y-83344751D01*
X193131943Y-83363685D01*
X192972305Y-83419545D01*
X192972302Y-83419547D01*
X192829115Y-83509518D01*
X192829109Y-83509523D01*
X192709523Y-83629109D01*
X192709518Y-83629115D01*
X192619547Y-83772302D01*
X192619545Y-83772305D01*
X192563685Y-83931943D01*
X192544751Y-84099997D01*
X192544751Y-84100002D01*
X178950500Y-84100002D01*
X178950500Y-83159578D01*
X178960304Y-83111254D01*
X179005439Y-83004596D01*
X179180525Y-82590846D01*
X179199679Y-82537400D01*
X179200381Y-82532591D01*
X179205143Y-82512216D01*
X179235674Y-82418256D01*
X179255460Y-82230000D01*
X179235674Y-82041744D01*
X179177179Y-81861716D01*
X179082533Y-81697784D01*
X178955871Y-81557112D01*
X178955870Y-81557111D01*
X178802734Y-81445851D01*
X178802729Y-81445848D01*
X178629807Y-81368857D01*
X178629802Y-81368855D01*
X178484001Y-81337865D01*
X178444646Y-81329500D01*
X178255354Y-81329500D01*
X178222897Y-81336398D01*
X178070197Y-81368855D01*
X178070192Y-81368857D01*
X177897270Y-81445848D01*
X177897265Y-81445851D01*
X177744129Y-81557111D01*
X177617466Y-81697785D01*
X177522821Y-81861715D01*
X177522818Y-81861722D01*
X177479905Y-81993796D01*
X177464326Y-82041744D01*
X177452933Y-82150145D01*
X177444540Y-82230000D01*
X177464326Y-82418256D01*
X177464328Y-82418262D01*
X177488657Y-82493142D01*
X177493872Y-82516929D01*
X177494585Y-82522973D01*
X177593721Y-82895413D01*
X177645328Y-83089290D01*
X177649500Y-83121186D01*
X177649500Y-92364069D01*
X177664196Y-92437949D01*
X177674499Y-92489744D01*
X177723535Y-92608127D01*
X177733720Y-92623370D01*
X177794726Y-92714673D01*
X177794727Y-92714674D01*
X192450172Y-107370117D01*
X192483657Y-107431440D01*
X192478673Y-107501132D01*
X192436801Y-107557065D01*
X192371337Y-107581482D01*
X192303064Y-107566630D01*
X192296519Y-107562792D01*
X192227692Y-107519545D01*
X192227691Y-107519544D01*
X192227690Y-107519544D01*
X192189370Y-107506135D01*
X192068056Y-107463685D01*
X191900003Y-107444751D01*
X191899997Y-107444751D01*
X191731943Y-107463685D01*
X191572305Y-107519545D01*
X191572302Y-107519547D01*
X191429115Y-107609518D01*
X191429109Y-107609523D01*
X191309523Y-107729109D01*
X191309518Y-107729115D01*
X191219547Y-107872302D01*
X191219545Y-107872305D01*
X191163685Y-108031943D01*
X191144751Y-108199997D01*
X191144751Y-108200002D01*
X191163685Y-108368053D01*
X191163686Y-108368058D01*
X191163687Y-108368059D01*
X191172816Y-108394149D01*
X191176092Y-108403509D01*
X191182251Y-108430410D01*
X191182621Y-108433657D01*
X191182622Y-108433664D01*
X191212036Y-108545890D01*
X191283726Y-108819424D01*
X191283727Y-108819428D01*
X191283728Y-108819429D01*
X191285031Y-108823329D01*
X191284887Y-108823377D01*
X191290481Y-108841953D01*
X191298535Y-108882445D01*
X191298537Y-108882452D01*
X191304005Y-108895653D01*
X191345688Y-108996286D01*
X191345689Y-108996288D01*
X191345690Y-108996289D01*
X191345691Y-108996292D01*
X191375352Y-109040680D01*
X191375353Y-109040683D01*
X191375354Y-109040683D01*
X191414141Y-109098733D01*
X191505586Y-109190178D01*
X191505608Y-109190198D01*
X192639938Y-110324528D01*
X192673423Y-110385851D01*
X192668439Y-110455543D01*
X192633362Y-110503927D01*
X192634034Y-110504599D01*
X192629824Y-110508808D01*
X192629577Y-110509150D01*
X192629112Y-110509520D01*
X192509523Y-110629109D01*
X192509518Y-110629115D01*
X192419547Y-110772302D01*
X192419545Y-110772305D01*
X192363685Y-110931943D01*
X192344751Y-111099997D01*
X192344751Y-111100002D01*
X192363685Y-111268053D01*
X192363687Y-111268060D01*
X192370898Y-111288668D01*
X192375440Y-111305267D01*
X192447086Y-111663031D01*
X192449500Y-111687380D01*
X192449500Y-118764070D01*
X192467344Y-118853773D01*
X192467344Y-118853775D01*
X192474497Y-118889737D01*
X192474498Y-118889741D01*
X192474499Y-118889744D01*
X192523535Y-119008127D01*
X192594723Y-119114669D01*
X192594726Y-119114673D01*
X192594727Y-119114674D01*
X195426353Y-121946299D01*
X195459838Y-122007622D01*
X195461892Y-122047863D01*
X195444751Y-122199996D01*
X195444751Y-122200002D01*
X195463685Y-122368056D01*
X195519545Y-122527694D01*
X195519547Y-122527697D01*
X195609518Y-122670884D01*
X195609523Y-122670890D01*
X195729109Y-122790476D01*
X195729115Y-122790481D01*
X195872302Y-122880452D01*
X195872305Y-122880454D01*
X195872309Y-122880455D01*
X195872310Y-122880456D01*
X195900946Y-122890476D01*
X196031943Y-122936314D01*
X196199997Y-122955249D01*
X196200000Y-122955249D01*
X196200003Y-122955249D01*
X196368056Y-122936314D01*
X196368059Y-122936313D01*
X196527690Y-122880456D01*
X196527692Y-122880454D01*
X196527694Y-122880454D01*
X196527697Y-122880452D01*
X196670884Y-122790481D01*
X196670885Y-122790480D01*
X196670890Y-122790477D01*
X196790477Y-122670890D01*
X196872442Y-122540444D01*
X196880452Y-122527697D01*
X196880454Y-122527694D01*
X196880454Y-122527692D01*
X196880456Y-122527690D01*
X196936313Y-122368059D01*
X196936313Y-122368058D01*
X196936314Y-122368056D01*
X196955249Y-122200002D01*
X196955249Y-122199997D01*
X196936314Y-122031946D01*
X196936313Y-122031944D01*
X196936313Y-122031941D01*
X196905616Y-121944214D01*
X196902314Y-121933146D01*
X196900773Y-121926943D01*
X196894879Y-121903203D01*
X196894878Y-121903200D01*
X196859632Y-121816513D01*
X196850500Y-121769809D01*
X196850500Y-121735928D01*
X196825502Y-121610261D01*
X196825501Y-121610260D01*
X196825501Y-121610256D01*
X196776465Y-121491873D01*
X196705277Y-121385331D01*
X196705275Y-121385329D01*
X196705273Y-121385326D01*
X193786819Y-118466872D01*
X193753334Y-118405549D01*
X193750500Y-118379191D01*
X193750500Y-115424000D01*
X193770185Y-115356961D01*
X193822989Y-115311206D01*
X193874500Y-115300000D01*
X194425500Y-115300000D01*
X194492539Y-115319685D01*
X194538294Y-115372489D01*
X194549500Y-115424000D01*
X194549500Y-116364071D01*
X194573977Y-116487120D01*
X194573978Y-116487131D01*
X194573979Y-116487131D01*
X194574497Y-116489737D01*
X194574500Y-116489747D01*
X194623533Y-116608125D01*
X194694726Y-116714673D01*
X194694727Y-116714674D01*
X199861760Y-121881706D01*
X199895245Y-121943029D01*
X199895665Y-121993735D01*
X199875440Y-122094731D01*
X199870897Y-122111334D01*
X199863687Y-122131940D01*
X199863685Y-122131946D01*
X199844751Y-122299997D01*
X199844751Y-122300002D01*
X199863685Y-122468056D01*
X199919545Y-122627694D01*
X199919547Y-122627697D01*
X200009518Y-122770884D01*
X200009523Y-122770890D01*
X200129109Y-122890476D01*
X200129115Y-122890481D01*
X200272302Y-122980452D01*
X200272305Y-122980454D01*
X200272309Y-122980455D01*
X200272310Y-122980456D01*
X200344913Y-123005860D01*
X200431943Y-123036314D01*
X200599997Y-123055249D01*
X200600000Y-123055249D01*
X200600003Y-123055249D01*
X200768056Y-123036314D01*
X200768059Y-123036313D01*
X200927690Y-122980456D01*
X200927692Y-122980454D01*
X200927694Y-122980454D01*
X200927697Y-122980452D01*
X201070884Y-122890481D01*
X201070885Y-122890480D01*
X201070890Y-122890477D01*
X201190477Y-122770890D01*
X201221506Y-122721508D01*
X201280452Y-122627697D01*
X201280454Y-122627694D01*
X201280454Y-122627692D01*
X201280456Y-122627690D01*
X201336313Y-122468059D01*
X201336313Y-122468058D01*
X201336314Y-122468056D01*
X201355249Y-122300002D01*
X201355249Y-122299997D01*
X201336314Y-122131945D01*
X201336313Y-122131943D01*
X201336313Y-122131941D01*
X201329101Y-122111332D01*
X201324557Y-122094725D01*
X201314248Y-122043248D01*
X201252914Y-121736968D01*
X201250500Y-121712620D01*
X201250500Y-121635928D01*
X201225502Y-121510261D01*
X201225501Y-121510260D01*
X201225501Y-121510256D01*
X201176465Y-121391873D01*
X201175535Y-121390481D01*
X201155228Y-121360088D01*
X201155228Y-121360087D01*
X201105279Y-121285334D01*
X201105273Y-121285326D01*
X195886819Y-116066872D01*
X195853334Y-116005549D01*
X195850500Y-115979191D01*
X195850500Y-114787377D01*
X195852914Y-114763029D01*
X195901263Y-114521594D01*
X195924558Y-114405266D01*
X195929101Y-114388666D01*
X195936313Y-114368059D01*
X195955249Y-114200000D01*
X195955249Y-114199997D01*
X195936314Y-114031945D01*
X195936313Y-114031943D01*
X195936313Y-114031941D01*
X195929101Y-114011332D01*
X195924557Y-113994725D01*
X195915349Y-113948746D01*
X195852914Y-113636968D01*
X195850500Y-113612620D01*
X195850500Y-109937281D01*
X195870185Y-109870242D01*
X195922989Y-109824487D01*
X195992147Y-109814543D01*
X196055703Y-109843568D01*
X196062181Y-109849600D01*
X202024227Y-115811646D01*
X202027591Y-115815144D01*
X202042323Y-115831077D01*
X202044414Y-115832774D01*
X202053957Y-115841376D01*
X202292589Y-116080008D01*
X202343740Y-116131159D01*
X202379994Y-116167413D01*
X202379996Y-116167414D01*
X202482756Y-116236076D01*
X202482758Y-116236077D01*
X202482767Y-116236083D01*
X202507772Y-116246440D01*
X202530071Y-116255677D01*
X202585793Y-116278758D01*
X202616478Y-116297035D01*
X203063846Y-116660099D01*
X203072253Y-116666921D01*
X203086296Y-116677694D01*
X203098500Y-116688396D01*
X203128597Y-116718493D01*
X203128603Y-116718498D01*
X203314594Y-116848730D01*
X203358219Y-116903307D01*
X203365413Y-116972805D01*
X203333890Y-117035160D01*
X203314595Y-117051880D01*
X203128922Y-117181890D01*
X203128920Y-117181891D01*
X202961891Y-117348920D01*
X202961886Y-117348926D01*
X202826400Y-117542420D01*
X202826399Y-117542422D01*
X202726570Y-117756507D01*
X202726567Y-117756513D01*
X202669364Y-117969999D01*
X202669364Y-117970000D01*
X203566988Y-117970000D01*
X203534075Y-118027007D01*
X203500000Y-118154174D01*
X203500000Y-118285826D01*
X203534075Y-118412993D01*
X203566988Y-118470000D01*
X202669364Y-118470000D01*
X202726567Y-118683486D01*
X202726570Y-118683492D01*
X202826399Y-118897578D01*
X202961894Y-119091082D01*
X203128917Y-119258105D01*
X203322421Y-119393600D01*
X203536507Y-119493429D01*
X203536516Y-119493433D01*
X203750000Y-119550634D01*
X203750000Y-118653012D01*
X203807007Y-118685925D01*
X203934174Y-118720000D01*
X204065826Y-118720000D01*
X204192993Y-118685925D01*
X204250000Y-118653012D01*
X204250000Y-119550633D01*
X204463483Y-119493433D01*
X204463492Y-119493429D01*
X204677578Y-119393600D01*
X204871082Y-119258105D01*
X205038105Y-119091082D01*
X205111937Y-118985641D01*
X205166514Y-118942016D01*
X205236013Y-118934824D01*
X205298367Y-118966346D01*
X205333781Y-119026576D01*
X205337510Y-119056037D01*
X205399269Y-129575610D01*
X205379978Y-129642764D01*
X205327444Y-129688828D01*
X205275608Y-129700338D01*
X168723357Y-129799664D01*
X168656264Y-129780161D01*
X168610366Y-129727482D01*
X168599024Y-129676647D01*
X168585363Y-127948495D01*
X181380000Y-127948495D01*
X181418427Y-128141681D01*
X181418430Y-128141693D01*
X181493807Y-128323671D01*
X181493814Y-128323684D01*
X181603248Y-128487462D01*
X181603251Y-128487466D01*
X181742533Y-128626748D01*
X181742537Y-128626751D01*
X181906315Y-128736185D01*
X181906328Y-128736192D01*
X182088308Y-128811569D01*
X182130000Y-128819862D01*
X182130000Y-128016988D01*
X182139940Y-128034205D01*
X182195795Y-128090060D01*
X182264204Y-128129556D01*
X182340504Y-128150000D01*
X182419496Y-128150000D01*
X182495796Y-128129556D01*
X182564205Y-128090060D01*
X182620060Y-128034205D01*
X182630000Y-128016988D01*
X182630000Y-128819862D01*
X182671690Y-128811569D01*
X182671692Y-128811569D01*
X182853671Y-128736192D01*
X182853684Y-128736185D01*
X183017462Y-128626751D01*
X183017466Y-128626748D01*
X183156748Y-128487466D01*
X183156751Y-128487462D01*
X183266185Y-128323684D01*
X183266192Y-128323671D01*
X183341569Y-128141693D01*
X183341572Y-128141681D01*
X183379999Y-127948495D01*
X190020000Y-127948495D01*
X190058427Y-128141681D01*
X190058430Y-128141693D01*
X190133807Y-128323671D01*
X190133814Y-128323684D01*
X190243248Y-128487462D01*
X190243251Y-128487466D01*
X190382533Y-128626748D01*
X190382537Y-128626751D01*
X190546315Y-128736185D01*
X190546328Y-128736192D01*
X190728308Y-128811569D01*
X190770000Y-128819862D01*
X190770000Y-128016988D01*
X190779940Y-128034205D01*
X190835795Y-128090060D01*
X190904204Y-128129556D01*
X190980504Y-128150000D01*
X191059496Y-128150000D01*
X191135796Y-128129556D01*
X191204205Y-128090060D01*
X191260060Y-128034205D01*
X191270000Y-128016988D01*
X191270000Y-128819862D01*
X191311690Y-128811569D01*
X191311692Y-128811569D01*
X191493671Y-128736192D01*
X191493684Y-128736185D01*
X191657462Y-128626751D01*
X191657466Y-128626748D01*
X191796748Y-128487466D01*
X191796751Y-128487462D01*
X191906185Y-128323684D01*
X191906192Y-128323671D01*
X191981569Y-128141693D01*
X191981572Y-128141681D01*
X192019999Y-127948495D01*
X192020000Y-127948492D01*
X192020000Y-127800000D01*
X191320000Y-127800000D01*
X191320000Y-127300000D01*
X192020000Y-127300000D01*
X192020000Y-127151508D01*
X192019999Y-127151504D01*
X191981572Y-126958318D01*
X191981569Y-126958306D01*
X191906192Y-126776328D01*
X191906185Y-126776315D01*
X191796751Y-126612537D01*
X191796748Y-126612533D01*
X191657466Y-126473251D01*
X191657462Y-126473248D01*
X191493684Y-126363814D01*
X191493671Y-126363807D01*
X191311691Y-126288429D01*
X191311683Y-126288427D01*
X191270000Y-126280135D01*
X191270000Y-127083011D01*
X191260060Y-127065795D01*
X191204205Y-127009940D01*
X191135796Y-126970444D01*
X191059496Y-126950000D01*
X190980504Y-126950000D01*
X190904204Y-126970444D01*
X190835795Y-127009940D01*
X190779940Y-127065795D01*
X190770000Y-127083011D01*
X190770000Y-126280136D01*
X190769999Y-126280135D01*
X190728316Y-126288427D01*
X190728308Y-126288429D01*
X190546328Y-126363807D01*
X190546315Y-126363814D01*
X190382537Y-126473248D01*
X190382533Y-126473251D01*
X190243251Y-126612533D01*
X190243248Y-126612537D01*
X190133814Y-126776315D01*
X190133807Y-126776328D01*
X190058430Y-126958306D01*
X190058427Y-126958318D01*
X190020000Y-127151504D01*
X190020000Y-127300000D01*
X190720000Y-127300000D01*
X190720000Y-127800000D01*
X190020000Y-127800000D01*
X190020000Y-127948495D01*
X183379999Y-127948495D01*
X183380000Y-127948492D01*
X183380000Y-127800000D01*
X182680000Y-127800000D01*
X182680000Y-127300000D01*
X183380000Y-127300000D01*
X183380000Y-127151508D01*
X183379999Y-127151504D01*
X183341572Y-126958318D01*
X183341569Y-126958306D01*
X183266192Y-126776328D01*
X183266185Y-126776315D01*
X183156751Y-126612537D01*
X183156748Y-126612533D01*
X183017466Y-126473251D01*
X183017462Y-126473248D01*
X182853684Y-126363814D01*
X182853671Y-126363807D01*
X182671691Y-126288429D01*
X182671683Y-126288427D01*
X182630000Y-126280135D01*
X182630000Y-127083011D01*
X182620060Y-127065795D01*
X182564205Y-127009940D01*
X182495796Y-126970444D01*
X182419496Y-126950000D01*
X182340504Y-126950000D01*
X182264204Y-126970444D01*
X182195795Y-127009940D01*
X182139940Y-127065795D01*
X182130000Y-127083011D01*
X182130000Y-126280136D01*
X182129999Y-126280135D01*
X182088316Y-126288427D01*
X182088308Y-126288429D01*
X181906328Y-126363807D01*
X181906315Y-126363814D01*
X181742537Y-126473248D01*
X181742533Y-126473251D01*
X181603251Y-126612533D01*
X181603248Y-126612537D01*
X181493814Y-126776315D01*
X181493807Y-126776328D01*
X181418430Y-126958306D01*
X181418427Y-126958318D01*
X181380000Y-127151504D01*
X181380000Y-127300000D01*
X182080000Y-127300000D01*
X182080000Y-127800000D01*
X181380000Y-127800000D01*
X181380000Y-127948495D01*
X168585363Y-127948495D01*
X168554296Y-124018495D01*
X181380000Y-124018495D01*
X181418427Y-124211681D01*
X181418430Y-124211693D01*
X181493807Y-124393671D01*
X181493814Y-124393684D01*
X181603248Y-124557462D01*
X181603251Y-124557466D01*
X181742533Y-124696748D01*
X181742537Y-124696751D01*
X181906315Y-124806185D01*
X181906328Y-124806192D01*
X182088308Y-124881569D01*
X182130000Y-124889862D01*
X182130000Y-124086988D01*
X182139940Y-124104205D01*
X182195795Y-124160060D01*
X182264204Y-124199556D01*
X182340504Y-124220000D01*
X182419496Y-124220000D01*
X182495796Y-124199556D01*
X182564205Y-124160060D01*
X182620060Y-124104205D01*
X182630000Y-124086988D01*
X182630000Y-124889862D01*
X182671690Y-124881569D01*
X182671692Y-124881569D01*
X182853671Y-124806192D01*
X182853684Y-124806185D01*
X183017462Y-124696751D01*
X183017466Y-124696748D01*
X183156748Y-124557466D01*
X183156751Y-124557462D01*
X183269574Y-124388613D01*
X183271007Y-124389570D01*
X183314198Y-124345580D01*
X183382332Y-124330103D01*
X183448018Y-124353919D01*
X183450089Y-124355697D01*
X183450189Y-124355568D01*
X183456630Y-124360510D01*
X183456635Y-124360515D01*
X183587865Y-124436281D01*
X183734234Y-124475500D01*
X183734236Y-124475500D01*
X183885764Y-124475500D01*
X183885766Y-124475500D01*
X184032135Y-124436281D01*
X184163365Y-124360515D01*
X184270515Y-124253365D01*
X184346281Y-124122135D01*
X184385500Y-123975766D01*
X184385500Y-123975765D01*
X189014500Y-123975765D01*
X189053719Y-124122136D01*
X189075615Y-124160060D01*
X189129485Y-124253365D01*
X189236635Y-124360515D01*
X189367865Y-124436281D01*
X189514234Y-124475500D01*
X189514236Y-124475500D01*
X189665764Y-124475500D01*
X189665766Y-124475500D01*
X189812135Y-124436281D01*
X189943365Y-124360515D01*
X189943372Y-124360507D01*
X189949811Y-124355568D01*
X189952044Y-124358478D01*
X189998258Y-124332865D01*
X190067980Y-124337411D01*
X190124176Y-124378930D01*
X190130394Y-124388634D01*
X190130426Y-124388613D01*
X190243248Y-124557462D01*
X190243251Y-124557466D01*
X190382533Y-124696748D01*
X190382537Y-124696751D01*
X190546315Y-124806185D01*
X190546328Y-124806192D01*
X190728308Y-124881569D01*
X190770000Y-124889862D01*
X190770000Y-124086988D01*
X190779940Y-124104205D01*
X190835795Y-124160060D01*
X190904204Y-124199556D01*
X190980504Y-124220000D01*
X191059496Y-124220000D01*
X191135796Y-124199556D01*
X191204205Y-124160060D01*
X191260060Y-124104205D01*
X191270000Y-124086988D01*
X191270000Y-124889862D01*
X191311690Y-124881569D01*
X191311692Y-124881569D01*
X191493671Y-124806192D01*
X191493684Y-124806185D01*
X191657462Y-124696751D01*
X191657466Y-124696748D01*
X191796748Y-124557466D01*
X191796751Y-124557462D01*
X191906185Y-124393684D01*
X191906192Y-124393671D01*
X191981569Y-124211693D01*
X191981572Y-124211681D01*
X192019999Y-124018495D01*
X192020000Y-124018492D01*
X192020000Y-123620000D01*
X191320000Y-123620000D01*
X191320000Y-123120000D01*
X192020000Y-123120000D01*
X192020000Y-122721508D01*
X192019999Y-122721504D01*
X191981572Y-122528318D01*
X191981569Y-122528306D01*
X191906192Y-122346328D01*
X191906185Y-122346315D01*
X191796751Y-122182537D01*
X191796748Y-122182533D01*
X191657466Y-122043251D01*
X191657462Y-122043248D01*
X191493684Y-121933814D01*
X191493671Y-121933807D01*
X191311691Y-121858429D01*
X191311683Y-121858427D01*
X191270000Y-121850135D01*
X191270000Y-122653011D01*
X191260060Y-122635795D01*
X191204205Y-122579940D01*
X191135796Y-122540444D01*
X191059496Y-122520000D01*
X190980504Y-122520000D01*
X190904204Y-122540444D01*
X190835795Y-122579940D01*
X190779940Y-122635795D01*
X190770000Y-122653011D01*
X190770000Y-121850136D01*
X190769999Y-121850135D01*
X190728316Y-121858427D01*
X190728308Y-121858429D01*
X190546328Y-121933807D01*
X190546315Y-121933814D01*
X190382537Y-122043248D01*
X190382533Y-122043251D01*
X190243251Y-122182533D01*
X190243248Y-122182537D01*
X190133814Y-122346315D01*
X190133807Y-122346328D01*
X190058430Y-122528306D01*
X190058427Y-122528318D01*
X190020000Y-122721504D01*
X190020000Y-123268955D01*
X190000315Y-123335994D01*
X189947511Y-123381749D01*
X189878353Y-123391693D01*
X189834000Y-123376342D01*
X189812138Y-123363720D01*
X189812135Y-123363719D01*
X189665766Y-123324500D01*
X189514234Y-123324500D01*
X189367863Y-123363719D01*
X189236635Y-123439485D01*
X189236632Y-123439487D01*
X189129487Y-123546632D01*
X189129485Y-123546635D01*
X189053719Y-123677863D01*
X189014500Y-123824234D01*
X189014500Y-123975765D01*
X184385500Y-123975765D01*
X184385500Y-123824234D01*
X184346281Y-123677865D01*
X184270515Y-123546635D01*
X184163365Y-123439485D01*
X184053999Y-123376342D01*
X184032136Y-123363719D01*
X183958950Y-123344109D01*
X183885766Y-123324500D01*
X183734234Y-123324500D01*
X183587865Y-123363719D01*
X183587864Y-123363719D01*
X183587862Y-123363720D01*
X183587861Y-123363720D01*
X183566000Y-123376342D01*
X183498099Y-123392815D01*
X183432073Y-123369962D01*
X183388882Y-123315041D01*
X183380000Y-123268955D01*
X183380000Y-122721508D01*
X183379999Y-122721504D01*
X183341572Y-122528318D01*
X183341569Y-122528306D01*
X183266192Y-122346328D01*
X183266185Y-122346315D01*
X183156751Y-122182537D01*
X183156748Y-122182533D01*
X183017466Y-122043251D01*
X183017462Y-122043248D01*
X182853684Y-121933814D01*
X182853671Y-121933807D01*
X182671691Y-121858429D01*
X182671683Y-121858427D01*
X182630000Y-121850135D01*
X182630000Y-122653011D01*
X182620060Y-122635795D01*
X182564205Y-122579940D01*
X182495796Y-122540444D01*
X182419496Y-122520000D01*
X182340504Y-122520000D01*
X182264204Y-122540444D01*
X182195795Y-122579940D01*
X182139940Y-122635795D01*
X182130000Y-122653011D01*
X182130000Y-121850136D01*
X182129999Y-121850135D01*
X182088316Y-121858427D01*
X182088308Y-121858429D01*
X181906328Y-121933807D01*
X181906315Y-121933814D01*
X181742537Y-122043248D01*
X181742533Y-122043251D01*
X181603251Y-122182533D01*
X181603248Y-122182537D01*
X181493814Y-122346315D01*
X181493807Y-122346328D01*
X181418430Y-122528306D01*
X181418427Y-122528318D01*
X181380000Y-122721504D01*
X181380000Y-123120000D01*
X182080000Y-123120000D01*
X182080000Y-123620000D01*
X181380000Y-123620000D01*
X181380000Y-124018495D01*
X168554296Y-124018495D01*
X168521992Y-119932024D01*
X168541146Y-119864833D01*
X168593587Y-119818662D01*
X168662664Y-119808172D01*
X168725700Y-119836062D01*
X168728602Y-119838498D01*
X168922165Y-119974032D01*
X168922167Y-119974033D01*
X168922170Y-119974035D01*
X169136337Y-120073903D01*
X169364592Y-120135063D01*
X169552918Y-120151539D01*
X169599999Y-120155659D01*
X169600000Y-120155659D01*
X169600001Y-120155659D01*
X169639234Y-120152226D01*
X169835408Y-120135063D01*
X170063663Y-120073903D01*
X170277830Y-119974035D01*
X170471401Y-119838495D01*
X170638495Y-119671401D01*
X170774035Y-119477830D01*
X170873903Y-119263663D01*
X170935063Y-119035408D01*
X170955659Y-118800000D01*
X170935063Y-118564592D01*
X170873903Y-118336337D01*
X170774035Y-118122171D01*
X170774034Y-118122169D01*
X170638494Y-117928597D01*
X170471402Y-117761506D01*
X170471401Y-117761505D01*
X170285405Y-117631269D01*
X170241781Y-117576692D01*
X170234588Y-117507193D01*
X170266110Y-117444839D01*
X170285405Y-117428119D01*
X170471082Y-117298105D01*
X170638105Y-117131082D01*
X170773600Y-116937578D01*
X170873429Y-116723492D01*
X170873432Y-116723486D01*
X170930636Y-116510000D01*
X170033012Y-116510000D01*
X170065925Y-116452993D01*
X170100000Y-116325826D01*
X170100000Y-116194174D01*
X170065925Y-116067007D01*
X170033012Y-116010000D01*
X170930636Y-116010000D01*
X170930635Y-116009999D01*
X170873432Y-115796513D01*
X170873429Y-115796507D01*
X170773600Y-115582422D01*
X170773599Y-115582420D01*
X170638113Y-115388926D01*
X170638108Y-115388920D01*
X170471078Y-115221890D01*
X170285405Y-115091879D01*
X170241780Y-115037302D01*
X170234588Y-114967804D01*
X170266110Y-114905449D01*
X170285406Y-114888730D01*
X170326111Y-114860228D01*
X170471401Y-114758495D01*
X170638495Y-114591401D01*
X170774035Y-114397830D01*
X170873903Y-114183663D01*
X170935063Y-113955408D01*
X170955659Y-113720000D01*
X170935063Y-113484592D01*
X170873903Y-113256337D01*
X170774035Y-113042171D01*
X170638495Y-112848599D01*
X170638494Y-112848597D01*
X170471402Y-112681506D01*
X170471396Y-112681501D01*
X170285842Y-112551575D01*
X170242217Y-112496998D01*
X170235023Y-112427500D01*
X170266546Y-112365145D01*
X170285842Y-112348425D01*
X170399845Y-112268599D01*
X170471401Y-112218495D01*
X170638495Y-112051401D01*
X170774035Y-111857830D01*
X170873903Y-111643663D01*
X170935063Y-111415408D01*
X170955659Y-111180000D01*
X170935063Y-110944592D01*
X170873903Y-110716337D01*
X170774035Y-110502171D01*
X170692588Y-110385851D01*
X170638494Y-110308597D01*
X170471402Y-110141506D01*
X170471396Y-110141501D01*
X170285842Y-110011575D01*
X170242217Y-109956998D01*
X170235023Y-109887500D01*
X170266546Y-109825145D01*
X170285842Y-109808425D01*
X170318722Y-109785402D01*
X170471401Y-109678495D01*
X170638495Y-109511401D01*
X170774035Y-109317830D01*
X170873903Y-109103663D01*
X170935063Y-108875408D01*
X170955659Y-108640000D01*
X170935063Y-108404592D01*
X170873903Y-108176337D01*
X170774035Y-107962171D01*
X170735365Y-107906943D01*
X170638494Y-107768597D01*
X170471402Y-107601506D01*
X170471396Y-107601501D01*
X170285842Y-107471575D01*
X170242217Y-107416998D01*
X170235023Y-107347500D01*
X170266546Y-107285145D01*
X170285842Y-107268425D01*
X170399849Y-107188596D01*
X170471401Y-107138495D01*
X170638495Y-106971401D01*
X170774035Y-106777830D01*
X170873903Y-106563663D01*
X170935063Y-106335408D01*
X170955659Y-106100000D01*
X170955500Y-106098188D01*
X170949729Y-106032219D01*
X170935063Y-105864592D01*
X170873903Y-105636337D01*
X170774035Y-105422171D01*
X170772197Y-105419545D01*
X170638494Y-105228597D01*
X170471402Y-105061506D01*
X170471396Y-105061501D01*
X170285842Y-104931575D01*
X170242217Y-104876998D01*
X170235023Y-104807500D01*
X170266546Y-104745145D01*
X170285842Y-104728425D01*
X170387346Y-104657351D01*
X170471401Y-104598495D01*
X170638495Y-104431401D01*
X170774035Y-104237830D01*
X170873903Y-104023663D01*
X170935063Y-103795408D01*
X170955659Y-103560000D01*
X170935063Y-103324592D01*
X170873903Y-103096337D01*
X170774035Y-102882171D01*
X170771260Y-102878207D01*
X170638494Y-102688597D01*
X170471402Y-102521506D01*
X170471396Y-102521501D01*
X170285842Y-102391575D01*
X170242217Y-102336998D01*
X170235023Y-102267500D01*
X170266546Y-102205145D01*
X170285842Y-102188425D01*
X170408768Y-102102351D01*
X170471401Y-102058495D01*
X170638495Y-101891401D01*
X170774035Y-101697830D01*
X170873903Y-101483663D01*
X170935063Y-101255408D01*
X170955659Y-101020000D01*
X170935063Y-100784592D01*
X170873903Y-100556337D01*
X170774035Y-100342171D01*
X170677705Y-100204596D01*
X170638494Y-100148597D01*
X170471402Y-99981506D01*
X170471396Y-99981501D01*
X170285842Y-99851575D01*
X170242217Y-99796998D01*
X170235023Y-99727500D01*
X170266546Y-99665145D01*
X170285842Y-99648425D01*
X170308026Y-99632891D01*
X170471401Y-99518495D01*
X170638495Y-99351401D01*
X170774035Y-99157830D01*
X170873903Y-98943663D01*
X170935063Y-98715408D01*
X170955659Y-98480000D01*
X170935063Y-98244592D01*
X170873903Y-98016337D01*
X170774035Y-97802171D01*
X170750621Y-97768731D01*
X170638494Y-97608597D01*
X170471402Y-97441506D01*
X170471396Y-97441501D01*
X170285842Y-97311575D01*
X170242217Y-97256998D01*
X170235023Y-97187500D01*
X170266546Y-97125145D01*
X170285842Y-97108425D01*
X170399848Y-97028597D01*
X170471401Y-96978495D01*
X170638495Y-96811401D01*
X170774035Y-96617830D01*
X170873903Y-96403663D01*
X170935063Y-96175408D01*
X170955659Y-95940000D01*
X170935063Y-95704592D01*
X170873903Y-95476337D01*
X170774035Y-95262171D01*
X170677705Y-95124596D01*
X170638494Y-95068597D01*
X170471402Y-94901506D01*
X170471396Y-94901501D01*
X170285842Y-94771575D01*
X170242217Y-94716998D01*
X170235023Y-94647500D01*
X170266546Y-94585145D01*
X170285842Y-94568425D01*
X170399848Y-94488597D01*
X170471401Y-94438495D01*
X170638495Y-94271401D01*
X170774035Y-94077830D01*
X170873903Y-93863663D01*
X170935063Y-93635408D01*
X170955659Y-93400000D01*
X170935063Y-93164592D01*
X170873903Y-92936337D01*
X170774035Y-92722171D01*
X170699819Y-92616178D01*
X170638494Y-92528597D01*
X170471402Y-92361506D01*
X170471396Y-92361501D01*
X170285842Y-92231575D01*
X170242217Y-92176998D01*
X170235023Y-92107500D01*
X170266546Y-92045145D01*
X170285842Y-92028425D01*
X170453539Y-91911002D01*
X170471401Y-91898495D01*
X170638495Y-91731401D01*
X170774035Y-91537830D01*
X170873903Y-91323663D01*
X170935063Y-91095408D01*
X170955659Y-90860000D01*
X170935063Y-90624592D01*
X170873903Y-90396337D01*
X170774035Y-90182171D01*
X170689128Y-90060910D01*
X170638494Y-89988597D01*
X170471402Y-89821506D01*
X170471396Y-89821501D01*
X170285842Y-89691575D01*
X170242217Y-89636998D01*
X170235023Y-89567500D01*
X170266546Y-89505145D01*
X170285842Y-89488425D01*
X170399848Y-89408597D01*
X170471401Y-89358495D01*
X170638495Y-89191401D01*
X170774035Y-88997830D01*
X170873903Y-88783663D01*
X170935063Y-88555408D01*
X170955659Y-88320000D01*
X170935063Y-88084592D01*
X170873903Y-87856337D01*
X170774035Y-87642171D01*
X170708983Y-87549266D01*
X170638494Y-87448597D01*
X170471402Y-87281506D01*
X170471396Y-87281501D01*
X170285842Y-87151575D01*
X170242217Y-87096998D01*
X170235023Y-87027500D01*
X170266546Y-86965145D01*
X170285842Y-86948425D01*
X170308026Y-86932891D01*
X170471401Y-86818495D01*
X170638495Y-86651401D01*
X170774035Y-86457830D01*
X170873903Y-86243663D01*
X170935063Y-86015408D01*
X170955659Y-85780000D01*
X170955514Y-85778348D01*
X170945481Y-85663664D01*
X170935063Y-85544592D01*
X170873903Y-85316337D01*
X170774035Y-85102171D01*
X170759384Y-85081246D01*
X170638494Y-84908597D01*
X170471402Y-84741506D01*
X170471396Y-84741501D01*
X170285842Y-84611575D01*
X170242217Y-84556998D01*
X170235023Y-84487500D01*
X170266546Y-84425145D01*
X170285842Y-84408425D01*
X170392617Y-84333660D01*
X170471401Y-84278495D01*
X170638495Y-84111401D01*
X170774035Y-83917830D01*
X170873903Y-83703663D01*
X170935063Y-83475408D01*
X170955659Y-83240000D01*
X170935063Y-83004592D01*
X170873903Y-82776337D01*
X170774035Y-82562171D01*
X170762202Y-82545272D01*
X170638496Y-82368600D01*
X170638495Y-82368599D01*
X170516567Y-82246671D01*
X170483084Y-82185351D01*
X170488068Y-82115659D01*
X170529939Y-82059725D01*
X170560915Y-82042810D01*
X170692331Y-81993796D01*
X170807546Y-81907546D01*
X170893796Y-81792331D01*
X170944091Y-81657483D01*
X170950500Y-81597873D01*
X170950500Y-80850000D01*
X174294540Y-80850000D01*
X174305328Y-80952650D01*
X174305463Y-80954477D01*
X174306108Y-80960125D01*
X174306227Y-80961217D01*
X174314325Y-81038249D01*
X174314327Y-81038260D01*
X174327608Y-81079134D01*
X174331553Y-81094600D01*
X174425916Y-81597872D01*
X174447376Y-81712322D01*
X174449500Y-81735173D01*
X174449500Y-102373918D01*
X174449500Y-102373920D01*
X174449499Y-102373920D01*
X174478340Y-102518907D01*
X174478343Y-102518917D01*
X174534913Y-102655490D01*
X174534914Y-102655491D01*
X174534916Y-102655495D01*
X174559284Y-102691964D01*
X174581645Y-102725431D01*
X174617049Y-102778417D01*
X175596584Y-103757952D01*
X175596583Y-103757952D01*
X175611308Y-103767790D01*
X175633252Y-103782452D01*
X175661769Y-103801506D01*
X175680560Y-103816928D01*
X177268406Y-105404773D01*
X177283063Y-105422433D01*
X177362188Y-105538078D01*
X177522450Y-105772308D01*
X177647567Y-105955171D01*
X177652616Y-105963192D01*
X177692466Y-106032215D01*
X177692469Y-106032219D01*
X177726358Y-106069855D01*
X177733235Y-106078197D01*
X177744854Y-106093615D01*
X177746147Y-106095177D01*
X177746211Y-106095254D01*
X177746220Y-106095264D01*
X177771292Y-106120068D01*
X177776232Y-106125246D01*
X177819129Y-106172888D01*
X177972265Y-106284148D01*
X177972270Y-106284151D01*
X178145192Y-106361142D01*
X178145197Y-106361144D01*
X178330354Y-106400500D01*
X178330355Y-106400500D01*
X178519644Y-106400500D01*
X178519646Y-106400500D01*
X178704803Y-106361144D01*
X178776976Y-106329009D01*
X178787372Y-106324933D01*
X178818851Y-106314204D01*
X179309771Y-106064019D01*
X179366074Y-106050500D01*
X183825500Y-106050500D01*
X183892539Y-106070185D01*
X183938294Y-106122989D01*
X183949500Y-106174500D01*
X183949500Y-108079191D01*
X183929815Y-108146230D01*
X183913181Y-108166872D01*
X183603260Y-108476792D01*
X183541937Y-108510277D01*
X183472245Y-108505293D01*
X183416312Y-108463421D01*
X183391895Y-108397957D01*
X183398537Y-108348157D01*
X183435313Y-108243059D01*
X183446223Y-108146230D01*
X183454249Y-108075002D01*
X183454249Y-108074997D01*
X183435314Y-107906943D01*
X183386905Y-107768599D01*
X183379456Y-107747310D01*
X183379455Y-107747309D01*
X183379454Y-107747305D01*
X183379452Y-107747302D01*
X183289481Y-107604115D01*
X183289476Y-107604109D01*
X183169890Y-107484523D01*
X183169884Y-107484518D01*
X183026697Y-107394547D01*
X183026694Y-107394545D01*
X182867056Y-107338685D01*
X182699003Y-107319751D01*
X182698997Y-107319751D01*
X182530943Y-107338685D01*
X182371305Y-107394545D01*
X182371302Y-107394547D01*
X182228115Y-107484518D01*
X182228109Y-107484523D01*
X182108522Y-107604110D01*
X182097306Y-107621960D01*
X182091920Y-107629839D01*
X181828758Y-107984748D01*
X181816834Y-107998573D01*
X180973456Y-108841953D01*
X180701269Y-109114140D01*
X180701267Y-109114142D01*
X180657704Y-109157704D01*
X180614142Y-109201266D01*
X180592247Y-109234035D01*
X180592246Y-109234034D01*
X180545686Y-109303716D01*
X180545685Y-109303718D01*
X180512346Y-109384205D01*
X180512347Y-109384206D01*
X180498725Y-109417095D01*
X180498705Y-109417144D01*
X180498537Y-109417546D01*
X180476841Y-109526628D01*
X180474500Y-109538396D01*
X180474500Y-114521594D01*
X180454815Y-114588633D01*
X180413088Y-114628640D01*
X180391083Y-114641506D01*
X180162619Y-114775084D01*
X180157238Y-114778230D01*
X180141239Y-114787986D01*
X180137190Y-114790929D01*
X180137145Y-114790867D01*
X180127601Y-114797898D01*
X180028406Y-114860227D01*
X180028404Y-114860228D01*
X179908816Y-114979816D01*
X179908811Y-114979822D01*
X179818840Y-115123009D01*
X179818838Y-115123012D01*
X179762978Y-115282650D01*
X179744044Y-115450704D01*
X179744044Y-115450709D01*
X179762978Y-115618763D01*
X179818838Y-115778401D01*
X179818840Y-115778404D01*
X179908811Y-115921591D01*
X179908816Y-115921597D01*
X180028402Y-116041183D01*
X180028408Y-116041188D01*
X180171595Y-116131159D01*
X180171598Y-116131161D01*
X180171602Y-116131162D01*
X180171603Y-116131163D01*
X180244206Y-116156567D01*
X180331236Y-116187021D01*
X180499290Y-116205956D01*
X180499293Y-116205956D01*
X180499296Y-116205956D01*
X180667349Y-116187021D01*
X180667352Y-116187020D01*
X180826983Y-116131163D01*
X180826985Y-116131161D01*
X180826987Y-116131161D01*
X180826990Y-116131159D01*
X180970177Y-116041188D01*
X180970178Y-116041187D01*
X180970183Y-116041184D01*
X181089770Y-115921597D01*
X181163140Y-115804826D01*
X181171092Y-115793609D01*
X181171270Y-115793383D01*
X181171779Y-115792745D01*
X181346633Y-115493682D01*
X181365990Y-115468598D01*
X181498729Y-115335860D01*
X181498733Y-115335858D01*
X181585858Y-115248733D01*
X181629219Y-115183839D01*
X181654312Y-115146286D01*
X181693159Y-115052500D01*
X181701463Y-115032452D01*
X181725500Y-114911606D01*
X181725500Y-109910451D01*
X181745185Y-109843412D01*
X181761815Y-109822774D01*
X181812559Y-109772030D01*
X181873881Y-109738546D01*
X181943573Y-109743530D01*
X181999506Y-109785402D01*
X182017281Y-109818757D01*
X182024457Y-109839267D01*
X182024459Y-109839270D01*
X182114430Y-109982457D01*
X182114435Y-109982463D01*
X182234021Y-110102049D01*
X182234027Y-110102054D01*
X182377214Y-110192025D01*
X182377217Y-110192027D01*
X182377221Y-110192028D01*
X182377222Y-110192029D01*
X182401637Y-110200572D01*
X182536855Y-110247887D01*
X182704909Y-110266822D01*
X182704912Y-110266822D01*
X182704915Y-110266822D01*
X182872966Y-110247887D01*
X182872967Y-110247886D01*
X182872971Y-110247886D01*
X182898625Y-110238909D01*
X182920467Y-110233433D01*
X182923572Y-110232948D01*
X182923589Y-110232947D01*
X183268028Y-110153659D01*
X183295844Y-110150500D01*
X183564071Y-110150500D01*
X183648615Y-110133682D01*
X183689744Y-110125501D01*
X183808127Y-110076465D01*
X183914669Y-110005277D01*
X185105277Y-108814669D01*
X185176465Y-108708127D01*
X185225501Y-108589744D01*
X185227616Y-108579111D01*
X185234224Y-108545890D01*
X185250500Y-108464071D01*
X185250500Y-106174500D01*
X185270185Y-106107461D01*
X185322989Y-106061706D01*
X185374500Y-106050500D01*
X186889289Y-106050500D01*
X186896719Y-106050722D01*
X186904865Y-106051212D01*
X186904876Y-106051210D01*
X186910954Y-106050979D01*
X186910955Y-106051016D01*
X186918522Y-106050500D01*
X187139071Y-106050500D01*
X187253739Y-106027690D01*
X187264744Y-106025501D01*
X187291795Y-106014295D01*
X187361264Y-106006826D01*
X187423744Y-106038100D01*
X187459397Y-106098188D01*
X187462469Y-106142739D01*
X187444751Y-106299996D01*
X187444751Y-106300002D01*
X187463685Y-106468054D01*
X187463686Y-106468058D01*
X187484175Y-106526612D01*
X187489177Y-106545630D01*
X187492706Y-106565267D01*
X187492707Y-106565271D01*
X187492708Y-106565274D01*
X187563295Y-106777830D01*
X187593180Y-106867822D01*
X187599499Y-106906902D01*
X187599499Y-116742794D01*
X187579814Y-116809833D01*
X187563180Y-116830475D01*
X186324118Y-118069536D01*
X186324115Y-118069539D01*
X186288948Y-118122170D01*
X186288949Y-118122171D01*
X186252925Y-118176085D01*
X186203889Y-118294468D01*
X186203888Y-118294471D01*
X186198873Y-118319685D01*
X186166487Y-118381596D01*
X186105771Y-118416169D01*
X186077263Y-118419492D01*
X186064468Y-118419492D01*
X186064459Y-118419493D01*
X185897231Y-118448985D01*
X185737659Y-118507069D01*
X185737656Y-118507071D01*
X185590599Y-118591978D01*
X185460516Y-118701134D01*
X185351361Y-118831223D01*
X185266456Y-118978284D01*
X185266456Y-118978285D01*
X185208378Y-119137857D01*
X185178891Y-119305090D01*
X185178891Y-119620102D01*
X185178900Y-119620283D01*
X185178900Y-119634908D01*
X185208387Y-119802141D01*
X185208387Y-119802142D01*
X185266462Y-119961706D01*
X185266468Y-119961720D01*
X185351364Y-120108765D01*
X185351365Y-120108766D01*
X185351368Y-120108769D01*
X185351370Y-120108773D01*
X185390711Y-120155659D01*
X185460516Y-120238853D01*
X185460519Y-120238856D01*
X185460522Y-120238859D01*
X185590604Y-120348014D01*
X185737664Y-120432923D01*
X185897235Y-120491006D01*
X185920871Y-120495174D01*
X185983472Y-120526200D01*
X186019362Y-120586147D01*
X186022556Y-120631172D01*
X186003535Y-120799995D01*
X186003535Y-120800002D01*
X186022469Y-120968056D01*
X186078329Y-121127694D01*
X186078331Y-121127697D01*
X186168302Y-121270884D01*
X186168307Y-121270890D01*
X186287893Y-121390476D01*
X186287899Y-121390481D01*
X186431086Y-121480452D01*
X186431089Y-121480454D01*
X186431093Y-121480455D01*
X186431094Y-121480456D01*
X186463722Y-121491873D01*
X186590727Y-121536314D01*
X186758781Y-121555249D01*
X186758784Y-121555249D01*
X186758787Y-121555249D01*
X186926840Y-121536314D01*
X186926843Y-121536313D01*
X187086474Y-121480456D01*
X187213421Y-121400689D01*
X187280656Y-121381689D01*
X187345362Y-121400689D01*
X187420621Y-121447977D01*
X187472306Y-121480454D01*
X187472307Y-121480454D01*
X187472310Y-121480456D01*
X187578730Y-121517694D01*
X187631943Y-121536314D01*
X187799997Y-121555249D01*
X187800000Y-121555249D01*
X187800003Y-121555249D01*
X187968056Y-121536314D01*
X187968059Y-121536313D01*
X188127690Y-121480456D01*
X188127692Y-121480454D01*
X188127694Y-121480454D01*
X188127697Y-121480452D01*
X188270884Y-121390481D01*
X188270885Y-121390480D01*
X188270890Y-121390477D01*
X188390477Y-121270890D01*
X188480452Y-121127697D01*
X188480454Y-121127694D01*
X188480454Y-121127692D01*
X188480456Y-121127690D01*
X188536313Y-120968059D01*
X188536313Y-120968058D01*
X188536314Y-120968056D01*
X188555249Y-120800002D01*
X188555249Y-120799997D01*
X188536314Y-120631944D01*
X188508444Y-120552298D01*
X188504683Y-120539323D01*
X188501643Y-120526200D01*
X188498052Y-120510695D01*
X188392479Y-120238860D01*
X188388304Y-120228110D01*
X188379893Y-120183219D01*
X188379893Y-119177813D01*
X188399578Y-119110774D01*
X188416212Y-119090132D01*
X189655274Y-117851070D01*
X189655278Y-117851066D01*
X189726466Y-117744524D01*
X189775502Y-117626141D01*
X189786892Y-117568879D01*
X189800501Y-117500466D01*
X189800501Y-106489117D01*
X189800560Y-106485291D01*
X189800872Y-106475175D01*
X189800869Y-106475155D01*
X189800692Y-106470762D01*
X189800827Y-106470756D01*
X189800501Y-106464929D01*
X189800501Y-106185929D01*
X189775503Y-106060261D01*
X189775500Y-106060250D01*
X189748229Y-105994415D01*
X189739569Y-105960846D01*
X189736313Y-105931941D01*
X189680456Y-105772310D01*
X189680455Y-105772308D01*
X189680452Y-105772302D01*
X189590481Y-105629115D01*
X189590476Y-105629109D01*
X189470890Y-105509523D01*
X189470884Y-105509518D01*
X189327697Y-105419547D01*
X189327694Y-105419545D01*
X189168056Y-105363685D01*
X189000003Y-105344751D01*
X188999997Y-105344751D01*
X188831943Y-105363685D01*
X188672305Y-105419545D01*
X188672302Y-105419547D01*
X188529112Y-105509520D01*
X188529104Y-105509526D01*
X188502329Y-105536301D01*
X188441005Y-105569784D01*
X188373703Y-105565661D01*
X188368062Y-105563687D01*
X188368054Y-105563685D01*
X188200003Y-105544751D01*
X188199996Y-105544751D01*
X188152226Y-105550133D01*
X188083404Y-105538078D01*
X188032025Y-105490729D01*
X188014401Y-105423118D01*
X188021301Y-105385960D01*
X188036313Y-105343059D01*
X188051613Y-105207271D01*
X188055249Y-105175002D01*
X188055249Y-105174997D01*
X188036314Y-105006943D01*
X187980454Y-104847305D01*
X187980452Y-104847302D01*
X187890481Y-104704115D01*
X187890476Y-104704109D01*
X187770890Y-104584523D01*
X187770884Y-104584518D01*
X187627697Y-104494547D01*
X187627694Y-104494545D01*
X187468056Y-104438685D01*
X187300003Y-104419751D01*
X187299997Y-104419751D01*
X187131943Y-104438685D01*
X186972305Y-104494545D01*
X186972302Y-104494547D01*
X186829112Y-104584520D01*
X186829106Y-104584525D01*
X186777271Y-104636360D01*
X186768307Y-104644489D01*
X186741794Y-104666271D01*
X186741786Y-104666278D01*
X186702631Y-104709137D01*
X186642880Y-104745354D01*
X186611084Y-104749500D01*
X179291084Y-104749500D01*
X179267670Y-104747269D01*
X178804246Y-104658161D01*
X178757639Y-104638730D01*
X178347433Y-104358063D01*
X178329773Y-104343406D01*
X176578421Y-102592052D01*
X176578414Y-102592046D01*
X176513230Y-102548492D01*
X176494439Y-102533071D01*
X175986819Y-102025451D01*
X175953334Y-101964128D01*
X175950500Y-101937770D01*
X175950500Y-81735173D01*
X175952624Y-81712322D01*
X176008680Y-81413354D01*
X176068443Y-81094609D01*
X176072388Y-81079144D01*
X176072391Y-81079134D01*
X176085674Y-81038256D01*
X176093889Y-80960080D01*
X176094415Y-80955802D01*
X176094858Y-80952650D01*
X176100688Y-80911143D01*
X176100690Y-80911116D01*
X176100693Y-80911097D01*
X176100887Y-80909034D01*
X176100887Y-80909026D01*
X176100888Y-80909016D01*
X176100844Y-80901097D01*
X176101521Y-80887468D01*
X176105460Y-80850000D01*
X176085674Y-80661744D01*
X176027179Y-80481716D01*
X175932533Y-80317784D01*
X175805871Y-80177112D01*
X175805870Y-80177111D01*
X175652734Y-80065851D01*
X175652729Y-80065848D01*
X175479807Y-79988857D01*
X175479802Y-79988855D01*
X175334001Y-79957865D01*
X175294646Y-79949500D01*
X175105354Y-79949500D01*
X175072897Y-79956398D01*
X174920197Y-79988855D01*
X174920192Y-79988857D01*
X174747270Y-80065848D01*
X174747265Y-80065851D01*
X174594129Y-80177111D01*
X174467466Y-80317785D01*
X174372821Y-80481715D01*
X174372818Y-80481722D01*
X174314327Y-80661740D01*
X174314326Y-80661744D01*
X174294540Y-80850000D01*
X170950500Y-80850000D01*
X170950499Y-79802128D01*
X170944091Y-79742517D01*
X170911104Y-79654075D01*
X170893797Y-79607671D01*
X170893793Y-79607664D01*
X170807547Y-79492455D01*
X170807544Y-79492452D01*
X170692335Y-79406206D01*
X170692328Y-79406202D01*
X170557482Y-79355908D01*
X170557483Y-79355908D01*
X170497883Y-79349501D01*
X170497881Y-79349500D01*
X170497873Y-79349500D01*
X170497864Y-79349500D01*
X168702129Y-79349500D01*
X168702123Y-79349501D01*
X168642516Y-79355908D01*
X168507671Y-79406202D01*
X168507668Y-79406204D01*
X168399798Y-79486956D01*
X168334334Y-79511373D01*
X168266061Y-79496521D01*
X168216655Y-79447116D01*
X168201491Y-79388669D01*
X168201181Y-79349501D01*
X168200469Y-79259359D01*
X168219623Y-79192167D01*
X168245938Y-79162413D01*
X169265291Y-78328397D01*
X169329637Y-78301183D01*
X169344833Y-78300375D01*
X202879232Y-78581390D01*
G37*
%TD.AperFunction*%
%TD*%
%TA.AperFunction,Conductor*%
%TO.N,/EN*%
G36*
X200748684Y-121803427D02*
G01*
X200751883Y-121809403D01*
X200829089Y-122194937D01*
X200827354Y-122203722D01*
X200822134Y-122208027D01*
X200604517Y-122299109D01*
X200595563Y-122299142D01*
X200595483Y-122299109D01*
X200377865Y-122208027D01*
X200371556Y-122201672D01*
X200370910Y-122194939D01*
X200448117Y-121809403D01*
X200453101Y-121801963D01*
X200459589Y-121800000D01*
X200740411Y-121800000D01*
X200748684Y-121803427D01*
G37*
%TD.AperFunction*%
%TD*%
%TA.AperFunction,Conductor*%
%TO.N,+3V3*%
G36*
X187131520Y-105006487D02*
G01*
X187131878Y-105006829D01*
X187299321Y-105173331D01*
X187301897Y-105177190D01*
X187390717Y-105393884D01*
X187390684Y-105402838D01*
X187384328Y-105409147D01*
X187383115Y-105409568D01*
X186908121Y-105545722D01*
X186899224Y-105544708D01*
X186893650Y-105537699D01*
X186893197Y-105534475D01*
X186893197Y-105254540D01*
X186896259Y-105246648D01*
X187114992Y-105007231D01*
X187123100Y-105003437D01*
X187131520Y-105006487D01*
G37*
%TD.AperFunction*%
%TD*%
%TA.AperFunction,Conductor*%
%TO.N,/DTR*%
G36*
X192121591Y-108291745D02*
G01*
X192127900Y-108298101D01*
X192128392Y-108305504D01*
X192027289Y-108691266D01*
X192021876Y-108698400D01*
X192015971Y-108700000D01*
X191784029Y-108700000D01*
X191775756Y-108696573D01*
X191772711Y-108691266D01*
X191671607Y-108305504D01*
X191672825Y-108296633D01*
X191678406Y-108291746D01*
X191895484Y-108200889D01*
X191904437Y-108200857D01*
X192121591Y-108291745D01*
G37*
%TD.AperFunction*%
%TD*%
%TA.AperFunction,Conductor*%
%TO.N,/IO2*%
G36*
X192815464Y-101505034D02*
G01*
X192818891Y-101513307D01*
X192817438Y-101518955D01*
X192584061Y-101942365D01*
X192577066Y-101947956D01*
X192569377Y-101947543D01*
X192352574Y-101858679D01*
X192346218Y-101852370D01*
X192346195Y-101852314D01*
X192256956Y-101635939D01*
X192256969Y-101626984D01*
X192263311Y-101620662D01*
X192263574Y-101620557D01*
X192570974Y-101502386D01*
X192575172Y-101501607D01*
X192807191Y-101501607D01*
X192815464Y-101505034D01*
G37*
%TD.AperFunction*%
%TD*%
%TA.AperFunction,Conductor*%
%TO.N,/IO15*%
G36*
X191553405Y-97452418D02*
G01*
X191553441Y-97452453D01*
X191824757Y-97724729D01*
X191828169Y-97733009D01*
X191824901Y-97741099D01*
X191430452Y-98151199D01*
X191422248Y-98154786D01*
X191422020Y-98154788D01*
X191184325Y-98154788D01*
X191176052Y-98151361D01*
X191172631Y-98143470D01*
X191150393Y-97462051D01*
X191153548Y-97453670D01*
X191161705Y-97449975D01*
X191161999Y-97449970D01*
X191545124Y-97449012D01*
X191553405Y-97452418D01*
G37*
%TD.AperFunction*%
%TD*%
%TA.AperFunction,Conductor*%
%TO.N,/IO2*%
G36*
X192351450Y-101858240D02*
G01*
X192351966Y-101858759D01*
X192517768Y-102025499D01*
X192521172Y-102033782D01*
X192518900Y-102040678D01*
X192330506Y-102297024D01*
X192322845Y-102301661D01*
X192321078Y-102301795D01*
X192085376Y-102301795D01*
X192077103Y-102298368D01*
X192073676Y-102290095D01*
X192073694Y-102289439D01*
X192097439Y-101866824D01*
X192101324Y-101858759D01*
X192109070Y-101855783D01*
X192343165Y-101854847D01*
X192351450Y-101858240D01*
G37*
%TD.AperFunction*%
%TD*%
%TA.AperFunction,Conductor*%
%TO.N,/IO15*%
G36*
X203673443Y-114898687D02*
G01*
X203678809Y-114904563D01*
X203997706Y-115673473D01*
X203997710Y-115682428D01*
X203995162Y-115686238D01*
X203406416Y-116273601D01*
X203398139Y-116277018D01*
X203390780Y-116274403D01*
X202360865Y-115438571D01*
X202356601Y-115430697D01*
X202359153Y-115422113D01*
X202359955Y-115421223D01*
X202528352Y-115252826D01*
X202533144Y-115249930D01*
X203664527Y-114897873D01*
X203673443Y-114898687D01*
G37*
%TD.AperFunction*%
%TD*%
%TA.AperFunction,Conductor*%
%TO.N,/IO0*%
G36*
X193322135Y-111191973D02*
G01*
X193328443Y-111198328D01*
X193329089Y-111205062D01*
X193251883Y-111590597D01*
X193246899Y-111598037D01*
X193240411Y-111600000D01*
X192959589Y-111600000D01*
X192951316Y-111596573D01*
X192948117Y-111590597D01*
X192945326Y-111576662D01*
X192870910Y-111205060D01*
X192872645Y-111196277D01*
X192877862Y-111191974D01*
X193095484Y-111100889D01*
X193104436Y-111100857D01*
X193322135Y-111191973D01*
G37*
%TD.AperFunction*%
%TD*%
%TA.AperFunction,Conductor*%
%TO.N,/USB_DP*%
G36*
X189239583Y-106099958D02*
G01*
X189247842Y-106103418D01*
X189251163Y-106110351D01*
X189298538Y-106531661D01*
X189296057Y-106540265D01*
X189288218Y-106544595D01*
X189286911Y-106544668D01*
X189006288Y-106544668D01*
X188998015Y-106541241D01*
X188996531Y-106539425D01*
X188776833Y-106207461D01*
X188775125Y-106198671D01*
X188780133Y-106191247D01*
X188782064Y-106190215D01*
X188997812Y-106099915D01*
X189002371Y-106099009D01*
X189239583Y-106099958D01*
G37*
%TD.AperFunction*%
%TD*%
%TA.AperFunction,Conductor*%
%TO.N,/EN*%
G36*
X195348684Y-113703427D02*
G01*
X195351883Y-113709403D01*
X195429089Y-114094937D01*
X195427354Y-114103722D01*
X195422134Y-114108027D01*
X195204517Y-114199109D01*
X195195563Y-114199142D01*
X195195483Y-114199109D01*
X194977865Y-114108027D01*
X194971556Y-114101672D01*
X194970910Y-114094939D01*
X195048117Y-113709403D01*
X195053101Y-113701963D01*
X195059589Y-113700000D01*
X195340411Y-113700000D01*
X195348684Y-113703427D01*
G37*
%TD.AperFunction*%
%TD*%
%TA.AperFunction,Conductor*%
%TO.N,/USB_DN*%
G36*
X186976650Y-120317471D02*
G01*
X186980056Y-120325038D01*
X187008036Y-120787643D01*
X187005115Y-120796108D01*
X186997063Y-120800028D01*
X186996404Y-120800049D01*
X186761158Y-120800990D01*
X186756594Y-120800083D01*
X186538330Y-120708730D01*
X186532021Y-120702374D01*
X186531941Y-120693702D01*
X186676492Y-120321507D01*
X186682681Y-120315037D01*
X186687398Y-120314044D01*
X186968377Y-120314044D01*
X186976650Y-120317471D01*
G37*
%TD.AperFunction*%
%TD*%
%TA.AperFunction,Conductor*%
%TO.N,+5V*%
G36*
X180770841Y-115015148D02*
G01*
X180934851Y-115179158D01*
X180938278Y-115187431D01*
X180936678Y-115193336D01*
X180735394Y-115537601D01*
X180728260Y-115543014D01*
X180720857Y-115542522D01*
X180503117Y-115453271D01*
X180496761Y-115446962D01*
X180496728Y-115446882D01*
X180407477Y-115229142D01*
X180407510Y-115220188D01*
X180412396Y-115214606D01*
X180756666Y-115013320D01*
X180765534Y-115012103D01*
X180770841Y-115015148D01*
G37*
%TD.AperFunction*%
%TD*%
%TA.AperFunction,Conductor*%
%TO.N,+3V3*%
G36*
X175585939Y-80849964D02*
G01*
X175594202Y-80853412D01*
X175597608Y-80861693D01*
X175597408Y-80863820D01*
X175451790Y-81640456D01*
X175446897Y-81647956D01*
X175440290Y-81650000D01*
X174959710Y-81650000D01*
X174951437Y-81646573D01*
X174948210Y-81640456D01*
X174802591Y-80863820D01*
X174804435Y-80855057D01*
X174811935Y-80850164D01*
X174814052Y-80849964D01*
X175200000Y-80849000D01*
X175585939Y-80849964D01*
G37*
%TD.AperFunction*%
%TD*%
%TA.AperFunction,Conductor*%
%TO.N,/USB_DP*%
G36*
X187879659Y-120317471D02*
G01*
X187882292Y-120321508D01*
X188026842Y-120693701D01*
X188026643Y-120702654D01*
X188020453Y-120708730D01*
X187802189Y-120800083D01*
X187797625Y-120800990D01*
X187562379Y-120800049D01*
X187554120Y-120796589D01*
X187550726Y-120788302D01*
X187550747Y-120787643D01*
X187555787Y-120704329D01*
X187578728Y-120325037D01*
X187582648Y-120316986D01*
X187590407Y-120314044D01*
X187871386Y-120314044D01*
X187879659Y-120317471D01*
G37*
%TD.AperFunction*%
%TD*%
%TA.AperFunction,Conductor*%
%TO.N,+3V3*%
G36*
X182718597Y-109264004D02*
G01*
X183192959Y-109348285D01*
X183200503Y-109353106D01*
X183202610Y-109359804D01*
X183202610Y-109640686D01*
X183199183Y-109648959D01*
X183193535Y-109652088D01*
X182810193Y-109740330D01*
X182801362Y-109738846D01*
X182796775Y-109733445D01*
X182704828Y-109513762D01*
X182703921Y-109509200D01*
X182704856Y-109275477D01*
X182708316Y-109267219D01*
X182716603Y-109263825D01*
X182718597Y-109264004D01*
G37*
%TD.AperFunction*%
%TD*%
%TA.AperFunction,Conductor*%
%TO.N,/EN*%
G36*
X178708694Y-82378546D02*
G01*
X178715012Y-82384893D01*
X178714991Y-82393847D01*
X178714967Y-82393905D01*
X178453021Y-83012914D01*
X178446641Y-83019197D01*
X178442246Y-83020054D01*
X178158993Y-83020054D01*
X178150720Y-83016627D01*
X178147687Y-83011364D01*
X178127845Y-82936823D01*
X177983076Y-82392946D01*
X177984259Y-82384072D01*
X177989878Y-82379141D01*
X178345500Y-82230875D01*
X178354449Y-82230855D01*
X178708694Y-82378546D01*
G37*
%TD.AperFunction*%
%TD*%
%TA.AperFunction,Conductor*%
%TO.N,/RXD*%
G36*
X193642625Y-86162613D02*
G01*
X193986894Y-86363898D01*
X193992307Y-86371032D01*
X193991815Y-86378435D01*
X193902564Y-86596175D01*
X193896255Y-86602531D01*
X193896175Y-86602564D01*
X193678435Y-86691815D01*
X193669481Y-86691782D01*
X193663898Y-86686894D01*
X193462613Y-86342626D01*
X193461396Y-86333758D01*
X193464439Y-86328453D01*
X193628452Y-86164440D01*
X193636724Y-86161014D01*
X193642625Y-86162613D01*
G37*
%TD.AperFunction*%
%TD*%
%TA.AperFunction,Conductor*%
%TO.N,/IO2*%
G36*
X203679199Y-112365529D02*
G01*
X203679451Y-112366093D01*
X203999134Y-113135511D01*
X203999143Y-113144466D01*
X203999134Y-113144489D01*
X203679451Y-113913906D01*
X203673112Y-113920231D01*
X203664157Y-113920222D01*
X203663593Y-113919970D01*
X202306647Y-113270182D01*
X202300665Y-113263518D01*
X202300000Y-113259629D01*
X202300000Y-113020370D01*
X202303427Y-113012097D01*
X202306647Y-113009817D01*
X203663594Y-112360028D01*
X203672535Y-112359547D01*
X203679199Y-112365529D01*
G37*
%TD.AperFunction*%
%TD*%
%TA.AperFunction,Conductor*%
%TO.N,/USB_DN*%
G36*
X188437097Y-106299948D02*
G01*
X188445356Y-106303408D01*
X188448750Y-106311695D01*
X188448690Y-106312836D01*
X188401072Y-106779543D01*
X188396823Y-106787425D01*
X188389432Y-106790055D01*
X188108442Y-106790055D01*
X188100169Y-106786628D01*
X188097338Y-106782042D01*
X188096508Y-106779543D01*
X187972447Y-106405960D01*
X187973092Y-106397032D01*
X187979032Y-106391484D01*
X188197812Y-106299915D01*
X188202371Y-106299009D01*
X188437097Y-106299948D01*
G37*
%TD.AperFunction*%
%TD*%
%TA.AperFunction,Conductor*%
%TO.N,/RXD*%
G36*
X193521591Y-84191745D02*
G01*
X193527900Y-84198101D01*
X193528392Y-84205504D01*
X193427289Y-84591266D01*
X193421876Y-84598400D01*
X193415971Y-84600000D01*
X193184029Y-84600000D01*
X193175756Y-84596573D01*
X193172711Y-84591266D01*
X193071607Y-84205504D01*
X193072825Y-84196633D01*
X193078406Y-84191746D01*
X193295484Y-84100889D01*
X193304437Y-84100857D01*
X193521591Y-84191745D01*
G37*
%TD.AperFunction*%
%TD*%
%TA.AperFunction,Conductor*%
%TO.N,+3V3*%
G36*
X197549244Y-105203427D02*
G01*
X197552289Y-105208734D01*
X197653392Y-105594495D01*
X197652174Y-105603366D01*
X197646591Y-105608254D01*
X197429517Y-105699109D01*
X197420563Y-105699142D01*
X197420483Y-105699109D01*
X197203408Y-105608254D01*
X197197099Y-105601898D01*
X197196607Y-105594495D01*
X197297711Y-105208734D01*
X197303124Y-105201600D01*
X197309029Y-105200000D01*
X197540971Y-105200000D01*
X197549244Y-105203427D01*
G37*
%TD.AperFunction*%
%TD*%
%TA.AperFunction,Conductor*%
%TO.N,/EN*%
G36*
X195422135Y-114291973D02*
G01*
X195428443Y-114298328D01*
X195429089Y-114305062D01*
X195351883Y-114690597D01*
X195346899Y-114698037D01*
X195340411Y-114700000D01*
X195059589Y-114700000D01*
X195051316Y-114696573D01*
X195048117Y-114690597D01*
X195045326Y-114676662D01*
X194970910Y-114305060D01*
X194972645Y-114296277D01*
X194977862Y-114291974D01*
X195195484Y-114200889D01*
X195204436Y-114200857D01*
X195422135Y-114291973D01*
G37*
%TD.AperFunction*%
%TD*%
%TA.AperFunction,Conductor*%
%TO.N,+3V3*%
G36*
X178438867Y-105102666D02*
G01*
X179195618Y-105248175D01*
X179203095Y-105253103D01*
X179205109Y-105259665D01*
X179205109Y-105542831D01*
X179201682Y-105551104D01*
X179198721Y-105553255D01*
X178589324Y-105863818D01*
X178580397Y-105864522D01*
X178573588Y-105858706D01*
X178573213Y-105857896D01*
X178424905Y-105502171D01*
X178424005Y-105497648D01*
X178424964Y-105114126D01*
X178428412Y-105105863D01*
X178436693Y-105102457D01*
X178438867Y-105102666D01*
G37*
%TD.AperFunction*%
%TD*%
%TA.AperFunction,Conductor*%
%TO.N,/IO2*%
G36*
X192822171Y-97449905D02*
G01*
X193177224Y-97597933D01*
X193183542Y-97604280D01*
X193183521Y-97613234D01*
X193182835Y-97614616D01*
X192830384Y-98220315D01*
X192823261Y-98225743D01*
X192820271Y-98226131D01*
X192582619Y-98226131D01*
X192574346Y-98222704D01*
X192571140Y-98216694D01*
X192452451Y-97614616D01*
X192422745Y-97463925D01*
X192424507Y-97455147D01*
X192431961Y-97450185D01*
X192434189Y-97449964D01*
X192817648Y-97449005D01*
X192822171Y-97449905D01*
G37*
%TD.AperFunction*%
%TD*%
%TA.AperFunction,Conductor*%
%TO.N,+3V3*%
G36*
X178044104Y-104763021D02*
G01*
X178696237Y-105209216D01*
X178701130Y-105216716D01*
X178699286Y-105225479D01*
X178697924Y-105227124D01*
X178425749Y-105500665D01*
X178425707Y-105500707D01*
X178152124Y-105772924D01*
X178143843Y-105776330D01*
X178135578Y-105772882D01*
X178134216Y-105771237D01*
X177688021Y-105119104D01*
X177686177Y-105110341D01*
X177689402Y-105104226D01*
X178029225Y-104764403D01*
X178037497Y-104760977D01*
X178044104Y-104763021D01*
G37*
%TD.AperFunction*%
%TD*%
%TA.AperFunction,Conductor*%
%TO.N,/DTR*%
G36*
X193642625Y-110262613D02*
G01*
X193986894Y-110463898D01*
X193992307Y-110471032D01*
X193991815Y-110478435D01*
X193902564Y-110696175D01*
X193896255Y-110702531D01*
X193896175Y-110702564D01*
X193678435Y-110791815D01*
X193669481Y-110791782D01*
X193663898Y-110786894D01*
X193462613Y-110442626D01*
X193461396Y-110433758D01*
X193464439Y-110428453D01*
X193628452Y-110264440D01*
X193636724Y-110261014D01*
X193642625Y-110262613D01*
G37*
%TD.AperFunction*%
%TD*%
%TA.AperFunction,Conductor*%
%TO.N,+3V3*%
G36*
X193491267Y-103472711D02*
G01*
X193498400Y-103478123D01*
X193500000Y-103484028D01*
X193500000Y-103715971D01*
X193496573Y-103724244D01*
X193491266Y-103727289D01*
X193105504Y-103828392D01*
X193096633Y-103827174D01*
X193091745Y-103821591D01*
X193000889Y-103604515D01*
X193000857Y-103595563D01*
X193091746Y-103378406D01*
X193098101Y-103372099D01*
X193105504Y-103371607D01*
X193491267Y-103472711D01*
G37*
%TD.AperFunction*%
%TD*%
%TA.AperFunction,Conductor*%
%TO.N,+5V*%
G36*
X182530543Y-107906645D02*
G01*
X182531809Y-107907733D01*
X182698021Y-108072620D01*
X182700607Y-108076489D01*
X182790296Y-108295298D01*
X182790263Y-108304252D01*
X182784062Y-108310496D01*
X182411468Y-108469478D01*
X182402513Y-108469573D01*
X182398603Y-108466990D01*
X182234553Y-108302940D01*
X182231126Y-108294667D01*
X182233426Y-108287701D01*
X182514177Y-107909072D01*
X182521856Y-107904470D01*
X182530543Y-107906645D01*
G37*
%TD.AperFunction*%
%TD*%
%TA.AperFunction,Conductor*%
%TO.N,/IO0*%
G36*
X196239431Y-121635693D02*
G01*
X196241996Y-121639559D01*
X196426607Y-122093600D01*
X196426549Y-122102555D01*
X196420286Y-122108800D01*
X196205210Y-122198821D01*
X196196256Y-122198854D01*
X196196199Y-122198831D01*
X195977904Y-122108020D01*
X195971582Y-122101678D01*
X195970928Y-122094907D01*
X196022526Y-121838815D01*
X196025721Y-121832857D01*
X196222886Y-121635692D01*
X196231158Y-121632266D01*
X196239431Y-121635693D01*
G37*
%TD.AperFunction*%
%TD*%
M02*
