M48
; DRILL file {KiCad 8.0.1} date 2024-05-07T16:59:12+0800
; FORMAT={-:-/ absolute / inch / decimal}
; #@! TF.CreationDate,2024-05-07T16:59:12+08:00
; #@! TF.GenerationSoftware,Kicad,Pcbnew,8.0.1
; #@! TF.FileFunction,MixedPlating,1,2
FMAT,2
INCH
; #@! TA.AperFunction,Plated,PTH,ComponentDrill
T1C0.0079
; #@! TA.AperFunction,Plated,PTH,ViaDrill
T2C0.0118
; #@! TA.AperFunction,Plated,PTH,ViaDrill
T3C0.0157
; #@! TA.AperFunction,Plated,PTH,ComponentDrill
T4C0.0236
; #@! TA.AperFunction,Plated,PTH,ComponentDrill
T5C0.0394
; #@! TA.AperFunction,NonPlated,NPTH,ComponentDrill
T6C0.0256
%
G90
G05
T1
X7.2793Y-3.3954
X7.2793Y-3.4554
X7.3094Y-3.3654
X7.3094Y-3.4254
X7.3094Y-3.4854
X7.3394Y-3.3954
X7.3394Y-3.4554
X7.3694Y-3.3654
X7.3694Y-3.4254
X7.3694Y-3.4854
X7.3994Y-3.3954
X7.3994Y-3.4554
T2
X7.2992Y-4.3701
X7.3071Y-4.2126
X7.3527Y-4.7559
X7.374Y-4.1407
X7.3937Y-4.7559
X7.4094Y-4.185
X7.4409Y-4.1772
X7.4606Y-4.1339
X7.4803Y-4.1811
X7.5039Y-4.4488
X7.5551Y-4.2598
X7.5728Y-4.0101
X7.5984Y-4.0787
X7.6024Y-4.374
X7.6102Y-3.311
X7.6339Y-3.4094
X7.6339Y-4.3583
X7.6457Y-4.5512
X7.685Y-4.4961
X7.7244Y-4.811
X7.7726Y-4.1614
X7.8976Y-4.815
T3
X6.6969Y-4.7717
X6.7559Y-3.5709
X6.7661Y-3.3368
X6.7677Y-3.1969
X6.7913Y-4.7717
X6.7992Y-3.5276
X6.8031Y-4.6063
X6.815Y-4.5118
X6.8425Y-3.4882
X6.8543Y-4.3071
X6.8701Y-4.7717
X6.874Y-4.6299
X6.8976Y-3.1831
X6.9331Y-4.4252
X6.9409Y-3.122
X6.9488Y-4.7717
X7.0197Y-4.7717
X7.0217Y-3.2374
X7.0236Y-4.8543
X7.0236Y-4.9567
X7.0246Y-4.1535
X7.0827Y-4.4173
X7.0945Y-4.7717
X7.0984Y-4.8543
X7.0984Y-4.9528
X7.126Y-4.0709
X7.1417Y-4.3071
X7.1457Y-4.1969
X7.1496Y-3.374
X7.1575Y-4.7717
X7.1654Y-3.6693
X7.1732Y-3.1535
X7.1772Y-4.0157
X7.2126Y-3.9488
X7.2165Y-4.6142
X7.2244Y-4.0709
X7.2323Y-4.0157
X7.2402Y-3.7205
X7.252Y-4.3228
X7.2717Y-4.9764
X7.2756Y-5.0551
X7.3661Y-3.7165
X7.3858Y-3.1654
X7.4055Y-4.9764
X7.4094Y-3.9094
X7.4094Y-5.0551
X7.4213Y-3.9488
X7.4764Y-3.9213
X7.4921Y-4.6811
X7.4961Y-4.7441
X7.5236Y-3.4134
X7.5276Y-4.2047
X7.5315Y-3.7165
X7.5413Y-3.8366
X7.5472Y-4.5591
X7.5472Y-4.6378
X7.5472Y-4.7165
X7.5512Y-4.4646
X7.5866Y-3.1654
X7.5906Y-4.815
X7.5906Y-4.874
X7.5906Y-4.9449
X7.5906Y-5.0079
X7.5913Y-3.8366
X7.6535Y-4.6299
X7.7244Y-4.7244
X7.7323Y-5.0827
X7.8031Y-3.1299
X7.8346Y-4.2205
X7.8622Y-3.126
X7.8622Y-4.9528
X7.8701Y-4.626
X7.878Y-5.0787
X7.8819Y-4.5276
X7.8937Y-4.2953
X7.9094Y-4.6929
X7.9291Y-4.5945
X7.9331Y-4.374
X7.937Y-3.1299
X7.9961Y-5.063
X8.0591Y-4.9567
T5
X6.6772Y-3.1772
X6.6772Y-3.2772
X6.6772Y-3.3772
X6.6772Y-3.4772
X6.6772Y-3.5772
X6.6772Y-3.6772
X6.6772Y-3.7772
X6.6772Y-3.8772
X6.6772Y-3.9772
X6.6772Y-4.0772
X6.6772Y-4.1772
X6.6772Y-4.2772
X6.6772Y-4.3772
X6.6772Y-4.4772
X6.6772Y-4.5772
X6.6772Y-4.6772
X8.0315Y-3.1543
X8.0315Y-3.2543
X8.0315Y-3.3543
X8.0315Y-3.4543
X8.0315Y-3.5543
X8.0315Y-3.6543
X8.0315Y-3.7543
X8.0315Y-3.8543
X8.0315Y-3.9543
X8.0315Y-4.0543
X8.0315Y-4.1543
X8.0315Y-4.2543
X8.0315Y-4.3543
X8.0315Y-4.4543
X8.0315Y-4.5543
X8.0315Y-4.6543
T6
X7.2366Y-4.878
X7.4642Y-4.878
T4
G00X7.1803Y-4.8354
M15
G01X7.1803Y-4.8787
M16
G05
G00X7.1803Y-5.0098
M15
G01X7.1803Y-5.0335
M16
G05
G00X7.5205Y-4.8354
M15
G01X7.5205Y-4.8787
M16
G05
G00X7.5205Y-5.0098
M15
G01X7.5205Y-5.0335
M16
G05
M30
